<svg xmlns="http://www.w3.org/2000/svg" viewBox="0 0 52.68 50.95">
    <defs>
        <style>
            .ocls-1 {
                fill: none;
            }

            .ocls-2 {
                fill: #892020;
            }

            .ocls-3 {
                fill: #851f1f;
            }

            .ocls-4 {
                fill: #801e1e;
            }

            .ocls-5 {
                fill: #7c1d1d;
            }

            .ocls-6 {
                fill: #781c1c;
            }

            .ocls-7 {
                fill: #741b1b;
            }

            .ocls-8 {
                fill: #6f1a1a;
            }

            .ocls-9 {
                fill: #ba2b2b;
            }
        </style>
    </defs>
    <g id="Layer_2" data-name="Layer 2">
        <g id="Layer_1-2" data-name="Layer 1">
            <path class="ocls-1"
                d="M37.86,6.62l-.68-.21c-.17,0-.33-.11-.5-.15l-.21-.06c.71.19,1.4.42,2.07.67l-.17-.06Z" />
            <path class="ocls-1" d="M5.64,23.57c-.1.57-.18,1.15-.25,1.73C5.46,24.72,5.54,24.14,5.64,23.57Z" />
            <path class="ocls-1" d="M6.19,21.13q-.29,1-.48,2Q5.9,22.12,6.19,21.13Z" />
            <path class="ocls-1" d="M6.87,19.14c-.19.5-.37,1-.53,1.53C6.5,20.15,6.68,19.64,6.87,19.14Z" />
            <path class="ocls-1" d="M8.92,15.16q-.48.72-.9,1.5Q8.44,15.88,8.92,15.16Z" />
            <path class="ocls-1" d="M33.21,41.13l-.51.15Z" />
            <path class="ocls-1" d="M21.85,6.13c.5-.13,1-.24,1.54-.34-.43.08-.86.16-1.28.26Z" />
            <path class="ocls-1" d="M7.9,16.86a19.56,19.56,0,0,0-.83,1.79A19.56,19.56,0,0,1,7.9,16.86Z" />
            <path class="ocls-1" d="M5.33,25.9c-.06.73-.1,1.47-.1,2.23C5.23,27.37,5.27,26.63,5.33,25.9Z" />
            <path class="ocls-1" d="M20.55,38.9l-.42-.38Z" />
            <path class="ocls-1" d="M38.23,18.11c.16.16.31.34.46.51C38.54,18.45,38.39,18.27,38.23,18.11Z" />
            <path class="ocls-1" d="M30.53,41.69a1.9,1.9,0,0,1-.25,0A1.9,1.9,0,0,0,30.53,41.69Z" />
            <path class="ocls-1" d="M31.93,41.47l-.4.08Z" />
            <path class="ocls-1" d="M10.23,13.37c-.35.43-.69.88-1,1.34C9.54,14.25,9.88,13.8,10.23,13.37Z" />
            <path class="ocls-1" d="M41,33.48l-.13.33Z" />
            <path class="ocls-1" d="M17.5,7.71c.39-.18.79-.35,1.2-.52-.26.11-.54.2-.79.32Z" />
            <path class="ocls-1" d="M24.06,5.65c.77-.13,1.55-.24,2.35-.31h-.05C25.58,5.42,24.81,5.52,24.06,5.65Z" />
            <path class="ocls-1" d="M17,8c-.49.26-1,.52-1.45.81C16,8.48,16.51,8.22,17,8Z" />
            <path class="ocls-1" d="M36.56,39.46l-.24.17Z" />
            <path class="ocls-1" d="M39.88,35.9c-.05.08-.1.16-.16.24C39.78,36.06,39.83,36,39.88,35.9Z" />
            <path class="ocls-1" d="M41.89,29.45l0,.37Z" />
            <path class="ocls-1" d="M15.24,9a18.27,18.27,0,0,0-1.6,1.12A18.27,18.27,0,0,1,15.24,9Z" />
            <path class="ocls-1" d="M37.49,38.74l-.25.2Z" />
            <path class="ocls-1" d="M39.23,36.86a2.56,2.56,0,0,0-.2.26C39.09,37,39.16,37,39.23,36.86Z" />
            <path class="ocls-1" d="M5.86,33.84c.1.45.19.91.31,1.35C6.05,34.75,6,34.29,5.86,33.84Z" />
            <path class="ocls-1" d="M34.37,40.69l-.48.2Z" />
            <path class="ocls-1" d="M29,5.23c-.86,0-1.7,0-2.53.11C27.32,5.27,28.16,5.23,29,5.23Z" />
            <path class="ocls-1" d="M39.07,19.07c.14.18.27.37.4.56C39.34,19.44,39.21,19.25,39.07,19.07Z" />
            <path class="ocls-1" d="M40.53,34.69l-.09.21Z" />
            <path class="ocls-1" d="M20.85,6.43c-.4.12-.81.24-1.2.38C20,6.67,20.45,6.55,20.85,6.43Z" />
            <path class="ocls-1" d="M13.26,10.38c-.4.32-.79.66-1.16,1C12.47,11,12.86,10.7,13.26,10.38Z" />
            <path class="ocls-1" d="M35.37,40.21l-.17.09Z" />
            <path class="ocls-1" d="M31,5.3H30.8c-.59,0-1.18-.06-1.78-.06.86,0,1.71,0,2.53.11l-.35,0Z" />
            <path class="ocls-1" d="M7.3,38.2c.17.37.33.75.51,1.11C7.63,39,7.47,38.57,7.3,38.2Z" />
            <path class="ocls-1" d="M40.31,7.6l-.2-.08-.6-.27L39,7l-.3-.11c.66.25,1.3.53,1.92.83l-.15-.07Z" />
            <path class="ocls-1" d="M42,8.47c-.37-.22-.76-.42-1.16-.62a19.08,19.08,0,0,1,1.77,1L42,8.5Z" />
            <path class="ocls-1" d="M43.4,9.38,42.77,9c.55.36,1.09.73,1.61,1.13l-.72-.53Z" />
            <path class="ocls-1" d="M44.93,10.52l-.36-.29c.51.4,1,.83,1.46,1.27l-.86-.77Z" />
            <path class="ocls-1" d="M5.23,28.13c0,.83,0,1.65.1,2.46C5.26,29.78,5.22,29,5.23,28.13Z" />
            <path class="ocls-1" d="M27.08,41.66l.61.07-.46,0Z" />
            <path class="ocls-1" d="M25.68,41.41c.24.06.48.11.73.15L26,41.48Z" />
            <path class="ocls-1" d="M33.2,5.53c-.52-.08-1.05-.14-1.58-.19.81.07,1.6.18,2.38.31l-.49-.07Z" />
            <path class="ocls-1" d="M6.48,36.1c.13.4.26.82.42,1.21C6.74,36.92,6.61,36.5,6.48,36.1Z" />
            <path class="ocls-1" d="M38.32,37.94l0,0Z" />
            <path class="ocls-1" d="M35.53,6h-.05c-.45-.11-.91-.2-1.37-.28.76.13,1.5.3,2.22.49l-.39-.09Z" />
            <path class="ocls-1" d="M42,28.13c0-.52,0-1-.06-1.52C41.93,27.11,42,27.61,42,28.13Z" />
            <path class="ocls-1" d="M5.44,31.38c.06.52.12,1.05.21,1.56C5.56,32.43,5.5,31.9,5.44,31.38Z" />
            <path class="ocls-1" d="M8.31,40.16c.19.34.39.69.6,1C8.7,40.85,8.5,40.5,8.31,40.16Z" />
            <path class="ocls-1" d="M41,22.48c.09.25.16.5.24.75C41.14,23,41.07,22.73,41,22.48Z" />
            <path class="ocls-1" d="M41.4,23.79c.07.27.13.55.18.82C41.53,24.34,41.47,24.06,41.4,23.79Z" />
            <path class="ocls-1" d="M10.41,13.14c.42-.49.86-1,1.32-1.4C11.27,12.19,10.83,12.65,10.41,13.14Z" />
            <path class="ocls-1" d="M39.81,20.12c.12.2.24.41.35.62C40.05,20.53,39.93,20.32,39.81,20.12Z" />
            <path class="ocls-1" d="M40.45,21.26l.3.68Z" />
            <path class="ocls-1" d="M41.7,25.17c.06.31.09.64.13,1C41.79,25.81,41.76,25.48,41.7,25.17Z" />
            <path class="ocls-1" d="M9.49,42c.23.31.45.62.7.92C9.94,42.6,9.72,42.29,9.49,42Z" />
            <path class="ocls-1" d="M21.08,39.31c.18.13.37.27.56.39l-.14-.08Z" />
            <path class="ocls-1" d="M41.41,32.32c0,.07,0,.14-.07.21S41.39,32.39,41.41,32.32Z" />
            <path class="ocls-1"
                d="M17.89,35.31l.32.13c.21.1.43.19.65.27l.56.19.69.2.31.09.34.06.48.09c.25,0,.51.08.76.11l.49,0,.21,0q.48,0,1,0c.45,0,.89,0,1.32,0h0l.25,0c.33,0,.66-.08,1-.14l.41-.09.45-.09.31-.1a4.44,4.44,0,0,0,.52-.15c.23-.07.45-.15.67-.24s.33-.12.48-.19l.23-.09.6-.31.17-.08c.33-.18.65-.38.95-.58l.24-.17c.24-.17.47-.34.69-.53l.24-.2c.28-.24.55-.49.81-.76l0,0c.24-.27.48-.54.7-.83.07-.08.13-.17.2-.26s.34-.47.5-.72l.16-.24c.19-.32.38-.65.55-1l.09-.2c.14-.29.27-.58.39-.89q.06-.15.12-.33c.11-.31.22-.62.31-.95l.06-.21c.11-.39.19-.79.27-1.2,0-.1,0-.21,0-.32,0-.32.1-.64.13-1l0-.36c0-.44.06-.88.06-1.33a15.1,15.1,0,0,0-1.61-7.07A13.34,13.34,0,0,0,29,14.4c-7.67,0-13,5.64-13,13.73a15,15,0,0,0,1.61,7l.08,0Z" />
            <path class="ocls-1" d="M24.41,41.05a8,8,0,0,0,.87.26,5.79,5.79,0,0,1-.63-.18Z" />
            <path class="ocls-1" d="M23.22,40.58c.26.12.52.23.79.33q-.29-.1-.57-.24Z" />
            <path class="ocls-1" d="M22.11,40c.21.13.41.25.63.36l-.26-.14Z" />
            <path class="ocls-1" d="M41.73,30.8c0,.1,0,.21,0,.32C41.7,31,41.71,30.9,41.73,30.8Z" />
            <path class="ocls-2"
                d="M17.64,35.18l-.08,0a12.15,12.15,0,0,0,2.57,3.38l.42.38c.17.15.35.28.53.41l.42.31.14.08a4.57,4.57,0,0,0,.47.29l.37.22.26.14.34.16-5.19-5.2Z" />
            <path class="ocls-3"
                d="M20.11,36.1l-.69-.2-.56-.19c-.22-.08-.44-.17-.65-.27l-.32-.13,5.19,5.2.14.07.22.09q.28.13.57.24l.4.14.24.08a5.79,5.79,0,0,0,.63.18l.35.09-5.21-5.21Z" />
            <path class="ocls-4"
                d="M22.49,36.5l-.49,0c-.25,0-.51-.06-.76-.11l-.48-.09-.34-.06,5.21,5.21h.05l.31.07.42.08.67.1.15,0,.46,0h.22L22.7,36.52Z" />
            <path class="ocls-5" d="M22.7,36.52l5.21,5.22c.33,0,.66,0,1,0l-5.23-5.24Q23.18,36.55,22.7,36.52Z" />
            <path class="ocls-5"
                d="M23.69,36.55l5.23,5.24c.44,0,.88,0,1.31-.06L25,36.5C24.58,36.53,24.14,36.55,23.69,36.55Z" />
            <path class="ocls-6"
                d="M26.71,36.23l-.41.09c-.33.06-.66.1-1,.14l-.25,0h0l5.22,5.23h.05a1.9,1.9,0,0,0,.25,0c.34,0,.67-.08,1-.14l.4-.08.44-.11-5.21-5.22Z" />
            <path class="ocls-7"
                d="M29.14,35.46c-.15.07-.32.13-.48.19s-.44.17-.67.24a4.44,4.44,0,0,1-.52.15l-.31.1,5.21,5.22.33-.08.51-.15.68-.24.48-.2.21-.1-5.21-5.22Z" />
            <path class="ocls-8"
                d="M41.83,26.13c0-.32-.07-.65-.13-1s-.08-.37-.12-.56-.11-.55-.18-.82-.12-.37-.18-.56-.15-.5-.24-.75-.16-.36-.23-.54l-.3-.68c-.09-.18-.19-.35-.29-.52s-.23-.42-.35-.62-.22-.33-.34-.49-.26-.38-.4-.56-.26-.3-.38-.45-.3-.35-.46-.51a11.59,11.59,0,0,0-3.12-2.29,15.1,15.1,0,0,1,1.61,7.07c0,.45,0,.89-.06,1.33l0,.36c0,.34-.08.66-.13,1,0,.11,0,.22,0,.32-.08.41-.16.81-.27,1.2l-.06.21c-.09.33-.2.64-.31.95q-.06.18-.12.33c-.12.31-.25.6-.39.89l-.09.2c-.17.35-.36.68-.55,1l-.16.24c-.16.25-.33.49-.5.72s-.13.18-.2.26c-.22.29-.46.56-.7.83l0,0c-.26.27-.53.52-.81.76l-.24.2c-.22.19-.45.36-.69.53l-.24.17c-.3.2-.62.4-.95.58l-.17.08-.6.31,5.21,5.22.62-.29.17-.09c.33-.18.64-.37,1-.58l.24-.17c.23-.17.46-.34.68-.52l.25-.2c.28-.25.55-.5.81-.77l0,0c.25-.26.48-.54.71-.82a2.56,2.56,0,0,1,.2-.26c.17-.24.34-.48.49-.72.06-.08.11-.16.16-.24.2-.33.39-.66.56-1l.09-.21c.14-.29.26-.58.38-.88l.13-.33c.11-.31.21-.63.3-.95,0-.07,0-.14.07-.21q.15-.59.27-1.2c0-.11,0-.22,0-.32.05-.32.09-.65.13-1l0-.37q.06-.66.06-1.32c0-.52,0-1-.06-1.52C41.88,26.45,41.85,26.29,41.83,26.13Z" />
            <path class="ocls-5"
                d="M30.8,5.29H31L25.8.07h-.23C25,0,24.39,0,23.79,0L29,5.23C29.62,5.23,30.21,5.26,30.8,5.29Z" />
            <path class="ocls-4"
                d="M31.2,5.32l.35,0h.07c.53,0,1.06.11,1.58.19l.31,0,.49.07.11,0c.46.08.92.17,1.37.28h.05L30.31.73h0c-.65-.15-1.31-.27-2-.38L28,.29C27.32.2,26.65.13,26,.08H25.8L31,5.3Z" />
            <path class="ocls-3"
                d="M35.94,6.07l.39.09.14,0,.21.06c.17,0,.33.1.5.15l.68.21.51.19.17.06.17.06L39,7l.5.21.6.27.2.08L35.09,2.38l-.2-.1L34.28,2l-.5-.21-.64-.24-.51-.18c-.22-.08-.45-.14-.68-.21L31.45,1,30.71.83l-.4-.1L35.53,6Z" />
            <path class="ocls-2"
                d="M40.48,7.69l.15.07.18.09c.4.2.79.4,1.16.62l.06,0,.55.34.19.11.63.43.26.17.72.53.19.15.36.29.24.21.86.77.18.17.18.17L41.16,6.61c-.39-.39-.8-.76-1.22-1.12l-.24-.2c-.41-.34-.83-.66-1.27-1l-.25-.18c-.45-.3-.9-.6-1.38-.87l0,0q-.73-.42-1.5-.78l-.16-.08L40.31,7.6Z" />
            <path class="ocls-9"
                d="M46.21,11.67,46,11.5c-.47-.44-1-.87-1.46-1.27l-.19-.15c-.52-.4-1.06-.77-1.61-1.13l-.19-.11a19.08,19.08,0,0,0-1.77-1l-.18-.09c-.62-.3-1.26-.58-1.92-.83l-.17-.06c-.67-.25-1.36-.48-2.07-.67l-.14,0c-.72-.19-1.46-.36-2.22-.49l-.11,0c-.78-.13-1.57-.24-2.38-.31h-.07c-.82-.07-1.67-.11-2.53-.11s-1.7,0-2.53.11h-.08c-.8.07-1.58.18-2.35.31l-.67.14c-.52.1-1,.21-1.54.34-.34.09-.67.19-1,.3s-.81.24-1.2.38l-.95.38c-.41.17-.81.34-1.2.52L17,8c-.49.26-1,.52-1.45.81L15.24,9a18.27,18.27,0,0,0-1.6,1.12c-.13.09-.25.2-.38.3-.4.32-.79.66-1.16,1l-.37.35c-.46.45-.9.91-1.32,1.4l-.18.23c-.35.43-.69.88-1,1.34l-.3.45q-.48.72-.9,1.5l-.12.2a19.56,19.56,0,0,0-.83,1.79c-.07.16-.13.33-.2.49-.19.5-.37,1-.53,1.53l-.15.46q-.29,1-.48,2c0,.14,0,.29-.07.43-.1.57-.18,1.15-.25,1.73l-.06.6c-.06.73-.1,1.47-.1,2.23s0,1.65.1,2.46c0,.27.07.52.11.79.06.52.12,1.05.21,1.56,0,.31.14.6.21.9s.19.91.31,1.35.21.6.31.91.26.82.42,1.21.26.59.4.89.33.75.51,1.11.33.57.5.85.39.69.6,1,.39.53.58.8.45.62.7.92.44.5.67.74C15,48.24,21.31,51,28.89,51,43,51,52.64,41.66,52.68,28.13A22.39,22.39,0,0,0,46.21,11.67ZM41.89,29.45l0,.37c0,.33-.08.66-.13,1,0,.1,0,.21,0,.32q-.12.61-.27,1.2c0,.07,0,.14-.07.21-.09.32-.19.64-.3.95l-.13.33c-.12.3-.24.59-.38.88l-.09.21c-.17.34-.36.67-.56,1-.05.08-.1.16-.16.24-.15.24-.32.48-.49.72s-.14.17-.2.26c-.23.28-.46.56-.71.82l0,0c-.26.27-.53.52-.81.77l-.25.2c-.22.18-.45.35-.68.52l-.24.17c-.31.21-.62.4-1,.58l-.17.09-.62.29-.21.1-.48.2-.68.24-.51.15-.33.08-.44.11-.4.08c-.33.06-.66.11-1,.14a1.9,1.9,0,0,1-.25,0h-.05c-.43,0-.87.06-1.31.06s-.68,0-1,0h-.22l-.61-.07-.67-.1c-.25,0-.49-.09-.73-.15h-.05l-.35-.09a8,8,0,0,1-.87-.26l-.4-.14c-.27-.1-.53-.21-.79-.33l-.14-.07-.34-.16c-.22-.11-.42-.23-.63-.36a4.57,4.57,0,0,1-.47-.29c-.19-.12-.38-.26-.56-.39s-.36-.26-.53-.41l-.42-.38a12.15,12.15,0,0,1-2.57-3.38,15,15,0,0,1-1.61-7C16,20,21.32,14.4,29,14.4a13.34,13.34,0,0,1,6.12,1.42,11.59,11.59,0,0,1,3.12,2.29c.16.16.31.34.46.51s.26.29.38.45.27.37.4.56.23.32.34.49.24.41.35.62.2.34.29.52l.3.68c.07.18.16.36.23.54s.16.5.24.75.13.37.18.56.13.55.18.82.09.37.12.56.09.64.13,1c0,.16.05.32.06.48,0,.5.06,1,.06,1.52S41.93,29,41.89,29.45Z" />
            <path class="ocls-8"
                d="M9.49,42c-.19-.27-.4-.53-.58-.8s-.41-.68-.6-1-.35-.56-.5-.85-.34-.74-.51-1.11-.28-.58-.4-.89-.29-.81-.42-1.21-.22-.6-.31-.91-.21-.9-.31-1.35-.16-.59-.21-.9c-.09-.51-.15-1-.21-1.56,0-.27-.09-.52-.11-.79-.07-.81-.11-1.63-.1-2.46s0-1.5.1-2.23l.06-.6c.07-.58.15-1.16.25-1.73,0-.14,0-.29.07-.43q.19-1,.48-2l.15-.46c.16-.52.34-1,.53-1.53.07-.16.13-.33.2-.49a19.56,19.56,0,0,1,.83-1.79l.12-.2q.42-.78.9-1.5l.3-.45c.32-.46.66-.91,1-1.34l.18-.23c.42-.49.86-1,1.32-1.4l.37-.35c.37-.35.76-.69,1.16-1,.13-.1.25-.21.38-.3A18.27,18.27,0,0,1,15.24,9l.31-.19c.47-.29,1-.55,1.45-.81l.5-.25.41-.2L12.7,2.29l-.42.19-.5.25c-.5.25-1,.52-1.46.81L10,3.72c-.55.35-1.08.73-1.6,1.12L8,5.15c-.41.32-.8.66-1.17,1L6.5,6.5C6,7,5.6,7.42,5.19,7.91A2,2,0,0,0,5,8.14c-.36.43-.69.87-1,1.33-.11.15-.21.3-.31.46-.32.48-.62,1-.9,1.49,0,.07-.08.13-.11.2-.31.58-.58,1.18-.84,1.79l-.2.5c-.19.5-.37,1-.53,1.53-.05.15-.1.3-.14.46-.19.66-.35,1.32-.49,2,0,.14,0,.28-.07.42q-.15.86-.24,1.74,0,.3-.06.6C0,21.4,0,22.14,0,22.89A22.34,22.34,0,0,0,6.27,39.12l5.22,5.23c-.22-.22-.42-.47-.63-.71s-.46-.48-.67-.74S9.72,42.29,9.49,42Z" />
            <path class="ocls-7"
                d="M18.7,7.19l.95-.38c.39-.14.8-.26,1.2-.38s.66-.21,1-.3l.26-.08L16.9.83,16.62.9c-.34.08-.67.19-1,.29l-1.2.39L13.47,2l-.77.33,5.21,5.22C18.16,7.39,18.44,7.3,18.7,7.19Z" />
            <path class="ocls-6"
                d="M23.39,5.79l.67-.14c.75-.13,1.52-.23,2.3-.3L21.14.12c-.79.07-1.55.17-2.3.29l-.68.14L16.9.83l5.21,5.22C22.53,6,23,5.87,23.39,5.79Z" />
            <path class="ocls-5"
                d="M26.41,5.34h.08c.83-.07,1.67-.11,2.53-.11L23.79,0c-.86,0-1.7,0-2.53.11h-.12l5.22,5.23Z" />
        </g>
    </g>
</svg>