<svg xmlns="http://www.w3.org/2000/svg" xmlns:xlink="http://www.w3.org/1999/xlink" viewBox="0 0 325.84 382.78">
    <defs>
        <style>
            .logo-cls-1 {
                fill: #1c1c1c;
            }

            .logo-cls-2 {
                clip-path: url(#clip-path);
            }

            .logo-cls-3 {
                isolation: isolate;
            }

            .logo-cls-4 {
                clip-path: url(#clip-path-2);
            }

            .logo-cls-5 {
                clip-path: url(#clip-path-3);
            }

            .logo-cls-6 {
                clip-path: url(#clip-path-4);
            }

            .logo-cls-7 {
                clip-path: url(#clip-path-5);
            }

            .logo-cls-8 {
                clip-path: url(#clip-path-6);
            }

            .logo-cls-9 {
                clip-path: url(#clip-path-7);
            }

            .logo-cls-10 {
                fill: #ffa143;
            }

            .logo-cls-11 {
                clip-path: url(#clip-path-8);
            }

            .logo-cls-12 {
                clip-path: url(#clip-path-9);
            }

            .logo-cls-13 {
                clip-path: url(#clip-path-10);
            }

            .logo-cls-14 {
                clip-path: url(#clip-path-11);
            }

            .logo-cls-15 {
                clip-path: url(#clip-path-12);
            }

            .logo-cls-16 {
                clip-path: url(#clip-path-13);
            }

            .logo-cls-17 {
                clip-path: url(#clip-path-14);
            }

            .logo-cls-18 {
                clip-path: url(#clip-path-15);
            }

            .logo-cls-19 {
                clip-path: url(#clip-path-16);
            }
        </style>
        <clipPath id="clip-path">
            <path class="logo-cls-1"
                d="M220.77,339.77,202.94,322.7c2.79,2.67,6.74,4.15,11.8,4.15l17.83,17.06C227.51,343.91,223.56,342.43,220.77,339.77Z" />
        </clipPath>
        <clipPath id="clip-path-2">
            <path class="logo-cls-1"
                d="M226.48,296.71l17.83,17.07c3.11,3,4.79,7.47,4.78,13.15,0,9.3-5.77,17-16.52,17l-17.83-17.06c10.75,0,16.51-7.68,16.52-17C231.27,304.19,229.59,299.69,226.48,296.71Z" />
        </clipPath>
        <clipPath id="clip-path-3">
            <path class="logo-cls-1"
                d="M294.73,274l17.83,17.07c-11.76-11.26-30.59-17.23-53.4-17.23l-17.83-17.06C264.13,256.82,283,262.79,294.73,274Z" />
        </clipPath>
        <clipPath id="clip-path-4">
            <path class="logo-cls-1"
                d="M216.15,282.71l-17.83-17.06c10-5.81,25.27-8.83,43-8.83l17.83,17.06C241.42,273.88,226.16,276.9,216.15,282.71Z" />
        </clipPath>
        <clipPath id="clip-path-5">
            <path class="logo-cls-1"
                d="M226.82,244.51l17.83,17.06a13.77,13.77,0,0,1,3.27,5.33l-17.83-17.07A13.73,13.73,0,0,0,226.82,244.51Z" />
        </clipPath>
        <clipPath id="clip-path-6">
            <path class="logo-cls-1"
                d="M161.41,360l-17.83-17.06c-14.34-13.73-21.29-33.25-21.26-57.48.06-45.15,27.61-82.61,93.33-82.61,38.33,0,59.89,9.77,71.84,21.21l17.83,17.06c-11.95-11.44-33.51-21.2-71.84-21.2-65.72,0-93.27,37.45-93.32,82.6C140.13,326.73,147.07,346.26,161.41,360Z" />
        </clipPath>
        <clipPath id="clip-path-7">
            <path class="logo-cls-1"
                d="M27.88,240.84,10,223.78c19.76-1.63,34.25-7.92,42.51-17.47l17.83,17.07C62.13,232.92,47.63,239.21,27.88,240.84Z" />
        </clipPath>
        <clipPath id="clip-path-8">
            <path class="logo-cls-1"
                d="M158.38,187.31l-18.27-18.13a11.59,11.59,0,0,0,8.56,3.18l18.27,18.13A11.59,11.59,0,0,1,158.38,187.31Z" />
        </clipPath>
        <clipPath id="clip-path-9">
            <path class="logo-cls-1"
                d="M156.77,128.37,175,146.5c3.78,3.74,4.94,10.86,4.93,21.09,0,13-2.33,22.9-13,22.9l-18.27-18.13c10.7,0,13-9.87,13-22.9C161.71,139.23,160.55,132.11,156.77,128.37Z" />
        </clipPath>
        <clipPath id="clip-path-10">
            <path class="logo-cls-1"
                d="M188.34,117.43l18.27,18.13c-9.09-9-22.64-14.4-39.33-14.4L149,103C165.7,103,179.25,108.41,188.34,117.43Z" />
        </clipPath>
        <clipPath id="clip-path-11">
            <path class="logo-cls-1"
                d="M126.33,199.81l-18.27-18.13c-8.29-8.22-12.58-19.49-12.56-32.22C95.53,125.05,110.26,103,149,103l18.27,18.13c-38.75,0-53.48,22-53.51,46.43C113.75,180.32,118,191.59,126.33,199.81Z" />
        </clipPath>
        <clipPath id="clip-path-12">
            <path class="logo-cls-1"
                d="M290.65,14l18.27,18.13c-8.45-8.38-22.39-14-43.31-14L247.34,0C268.26,0,282.2,5.62,290.65,14Z" />
        </clipPath>
        <clipPath id="clip-path-13">
            <path class="logo-cls-1"
                d="M257.07,86.77,238.8,68.64a11.63,11.63,0,0,0,8.59,3.26c9.29,0,12.18-5.45,13.62-11.93L279.28,78.1C277.84,84.58,275,90,265.66,90A11.64,11.64,0,0,1,257.07,86.77Z" />
        </clipPath>
        <clipPath id="clip-path-14">
            <path class="logo-cls-1"
                d="M256.55,26.28l18.27,18.13c2.36,2.34,3.4,5.73,4,9.29L260.51,35.57C260,32,258.91,28.62,256.55,26.28Z" />
        </clipPath>
        <clipPath id="clip-path-15">
            <path class="logo-cls-1"
                d="M222,99.53,203.71,81.4c-8.43-8.37-12.85-19.93-12.83-33.64C190.91,22.2,207,0,247.34,0l18.27,18.13c-40.3,0-56.43,22.2-56.46,47.76C209.13,79.6,213.56,91.16,222,99.53Z" />
        </clipPath>
        <clipPath id="clip-path-16">
            <path class="logo-cls-1"
                d="M163.27,73.91,145,55.78c-2.19-9.52-4.59-19.53-6.9-27.78l18.28,18.13C158.68,54.38,161.08,64.39,163.27,73.91Z" />
        </clipPath>
    </defs>
    <g id="Layer_2" data-name="Layer 2">
        <g id="Layer_1-2" data-name="Layer 1">
            <path class="logo-cls-1"
                d="M220.77,339.77,202.94,322.7c2.79,2.67,6.74,4.15,11.8,4.15l17.83,17.06C227.51,343.91,223.56,342.43,220.77,339.77Z" />
            <g class="logo-cls-2">
                <g class="logo-cls-3">
                    <path class="logo-cls-1"
                        d="M220.77,339.77,202.94,322.7a13.54,13.54,0,0,0,3.35,2.35l17.83,17.07a14,14,0,0,1-3.35-2.35" />
                    <path class="logo-cls-1"
                        d="M224.12,342.12l-17.83-17.07a15.51,15.51,0,0,0,3,1.13l17.83,17.06a15.75,15.75,0,0,1-3-1.12" />
                    <path class="logo-cls-1"
                        d="M227.12,343.24l-17.83-17.06a19.61,19.61,0,0,0,3,.55l17.83,17.06a18.68,18.68,0,0,1-3-.55" />
                    <path class="logo-cls-1"
                        d="M230.13,343.79,212.3,326.73a24,24,0,0,0,2.44.12l17.83,17.06a24.16,24.16,0,0,1-2.44-.12" />
                </g>
            </g>
            <path class="logo-cls-1"
                d="M226.48,296.71l17.83,17.07c3.11,3,4.79,7.47,4.78,13.15,0,9.3-5.77,17-16.52,17l-17.83-17.06c10.75,0,16.51-7.68,16.52-17C231.27,304.19,229.59,299.69,226.48,296.71Z" />
            <g class="logo-cls-4">
                <g class="logo-cls-3">
                    <path class="logo-cls-1" d="M232.57,343.91l-17.83-17.06.93,0,17.83,17.06c-.3,0-.61,0-.93,0" />
                    <path class="logo-cls-1"
                        d="M233.5,343.89l-17.83-17.06a19.43,19.43,0,0,0,2.93-.34l17.83,17.06a19.28,19.28,0,0,1-2.93.34" />
                    <path class="logo-cls-1"
                        d="M236.43,343.55,218.6,326.49a16.56,16.56,0,0,0,2.85-.82l17.83,17.06a16.56,16.56,0,0,1-2.85.82" />
                    <path class="logo-cls-1"
                        d="M239.28,342.73l-17.83-17.06c6.42-2.5,9.8-8.67,9.81-15.81,0-5.67-1.67-10.17-4.78-13.15l17.83,17.07c3.11,3,4.79,7.47,4.78,13.15,0,7.13-3.39,13.31-9.81,15.8" />
                </g>
            </g>
            <path class="logo-cls-1"
                d="M294.73,274l17.83,17.07c-11.76-11.26-30.59-17.23-53.4-17.23l-17.83-17.06C264.13,256.82,283,262.79,294.73,274Z" />
            <g class="logo-cls-5">
                <g class="logo-cls-3">
                    <path class="logo-cls-1"
                        d="M259.16,273.88l-17.83-17.06a119.37,119.37,0,0,1,12.31.61l17.83,17.07a119.32,119.32,0,0,0-12.31-.62" />
                    <path class="logo-cls-1"
                        d="M271.47,274.5l-17.83-17.07a95.37,95.37,0,0,1,14.73,2.66l17.83,17.07a93,93,0,0,0-14.73-2.66" />
                    <path class="logo-cls-1"
                        d="M286.2,277.16l-17.83-17.07a71.79,71.79,0,0,1,13.54,5.06l17.83,17.07a70.44,70.44,0,0,0-13.54-5.06" />
                    <path class="logo-cls-1"
                        d="M299.74,282.22l-17.83-17.07A52.59,52.59,0,0,1,294.73,274l17.83,17.07a51.86,51.86,0,0,0-12.82-8.89" />
                </g>
            </g>
            <path class="logo-cls-1"
                d="M216.15,282.71l-17.83-17.06c10-5.81,25.27-8.83,43-8.83l17.83,17.06C241.42,273.88,226.16,276.9,216.15,282.71Z" />
            <g class="logo-cls-6">
                <g class="logo-cls-3">
                    <path class="logo-cls-1"
                        d="M216.15,282.71l-17.83-17.06a48.11,48.11,0,0,1,6.76-3.21l17.84,17.06a50,50,0,0,0-6.77,3.21" />
                    <path class="logo-cls-1"
                        d="M222.92,279.5l-17.84-17.06a75.43,75.43,0,0,1,12.55-3.53L235.46,276a74.11,74.11,0,0,0-12.54,3.52" />
                    <path class="logo-cls-1"
                        d="M235.46,276l-17.83-17.07A116.89,116.89,0,0,1,235,257L252.84,274a115.54,115.54,0,0,0-17.38,2" />
                    <path class="logo-cls-1" d="M252.84,274,235,257q3.11-.13,6.32-.13l17.83,17.06q-3.21,0-6.32.13" />
                </g>
            </g>
            <path class="logo-cls-1"
                d="M226.82,244.51l17.83,17.06a13.77,13.77,0,0,1,3.27,5.33l-17.83-17.07A13.73,13.73,0,0,0,226.82,244.51Z" />
            <g class="logo-cls-7">
                <g class="logo-cls-3">
                    <path class="logo-cls-1"
                        d="M247.92,266.9l-17.83-17.07a13.73,13.73,0,0,0-3.27-5.32l17.83,17.06a13.77,13.77,0,0,1,3.27,5.33" />
                </g>
            </g>
            <path class="logo-cls-1"
                d="M161.41,360l-17.83-17.06c-14.34-13.73-21.29-33.25-21.26-57.48.06-45.15,27.61-82.61,93.33-82.61,38.33,0,59.89,9.77,71.84,21.21l17.83,17.06c-11.95-11.44-33.51-21.2-71.84-21.2-65.72,0-93.27,37.45-93.32,82.6C140.13,326.73,147.07,346.26,161.41,360Z" />
            <g class="logo-cls-8">
                <g class="logo-cls-3">
                    <path class="logo-cls-1"
                        d="M161.41,360l-17.83-17.06c-14.34-13.73-21.29-33.25-21.26-57.48.05-33.08,14.84-62,48.59-75.14l17.83,17.06C155,240.48,140.2,269.42,140.16,302.5c0,24.23,6.91,43.76,21.25,57.48" />
                    <path class="logo-cls-1"
                        d="M188.74,227.36,170.91,210.3a102.24,102.24,0,0,1,17.52-5l17.84,17.06a103.27,103.27,0,0,0-17.53,5" />
                    <path class="logo-cls-1"
                        d="M206.27,222.36,188.43,205.3A134.07,134.07,0,0,1,208.7,203L226.53,220a135.07,135.07,0,0,0-20.26,2.32" />
                    <path class="logo-cls-1"
                        d="M226.53,220,208.7,203c2.27-.1,4.58-.15,7-.15a189.44,189.44,0,0,1,19.7,1l17.83,17.06a192.25,192.25,0,0,0-19.7-1c-2.37,0-4.68,0-6.95.14" />
                    <path class="logo-cls-1"
                        d="M253.18,220.86,235.35,203.8a131.91,131.91,0,0,1,20.4,3.64l17.84,17.07a131,131,0,0,0-20.41-3.65" />
                    <path class="logo-cls-1"
                        d="M273.59,224.51l-17.84-17.07a87.91,87.91,0,0,1,16.88,6.3l17.84,17.06a88.43,88.43,0,0,0-16.88-6.29" />
                    <path class="logo-cls-1"
                        d="M290.47,230.8l-17.84-17.06A60.66,60.66,0,0,1,287.49,224l17.83,17.06a60.87,60.87,0,0,0-14.85-10.3" />
                </g>
            </g>
            <polygon class="logo-cls-1" points="49.95 379.28 32.11 362.21 32.24 262.86 50.07 279.93 49.95 379.28" />
            <polygon class="logo-cls-1" points="70.38 223.38 52.55 206.31 107.54 206.31 125.37 223.38 70.38 223.38" />
            <polygon class="logo-cls-1" points="27.83 276.43 10 259.36 10.04 223.78 27.88 240.84 27.83 276.43" />
            <path class="logo-cls-1"
                d="M27.88,240.84,10,223.78c19.76-1.63,34.25-7.92,42.51-17.47l17.83,17.07C62.13,232.92,47.63,239.21,27.88,240.84Z" />
            <g class="logo-cls-9">
                <g class="logo-cls-3">
                    <path class="logo-cls-1"
                        d="M27.88,240.84,10,223.78a103.3,103.3,0,0,0,11.25-1.53l17.83,17.06a103.44,103.44,0,0,1-11.24,1.53" />
                    <path class="logo-cls-1"
                        d="M39.12,239.31,21.29,222.25a76.23,76.23,0,0,0,12.87-3.65L52,235.66a76.23,76.23,0,0,1-12.87,3.65" />
                    <path class="logo-cls-1"
                        d="M52,235.66,34.16,218.6c7.8-3,14-7.19,18.39-12.29l17.83,17.07C66,228.47,59.8,232.64,52,235.66" />
                </g>
            </g>
            <path class="logo-cls-10"
                d="M259.16,273.88c39.24,0,66.72,17.68,66.68,49.56-.06,42.57-43.57,59.34-92,59.34-63.75,0-93.7-30-93.63-80.28.05-45.15,27.6-82.6,93.32-82.6,68,0,83.2,30.71,85.67,47H247.92c-2-5.35-5.48-8.85-14.74-8.85-11,0-16.75,7.22-17,24.66C226.16,276.9,241.42,273.88,259.16,273.88Zm-26.59,70c10.75,0,16.51-7.68,16.52-17,0-10.71-6-17.23-16.22-17.23-9,0-17,4.66-17,16.29,0,10.94,5.73,17.92,16.72,17.92" />
            <path class="logo-cls-10"
                d="M125.37,223.38l-.2,155.9H50l.12-99.35a168.58,168.58,0,0,1-22.24-3.5l.05-35.59c19.75-1.63,34.25-7.92,42.5-17.46Z" />
            <polygon class="logo-cls-1" points="269.06 189.48 251.42 171.98 302.2 171.98 319.84 189.48 269.06 189.48" />
            <path class="logo-cls-1"
                d="M158.38,187.31l-18.27-18.13a11.59,11.59,0,0,0,8.56,3.18l18.27,18.13A11.59,11.59,0,0,1,158.38,187.31Z" />
            <g class="logo-cls-11">
                <g class="logo-cls-3">
                    <path class="logo-cls-1"
                        d="M158.38,187.31l-18.27-18.13A10.46,10.46,0,0,0,142.6,171l18.27,18.13a10.46,10.46,0,0,1-2.49-1.83" />
                    <path class="logo-cls-1"
                        d="M160.87,189.14,142.6,171a11.38,11.38,0,0,0,2.18.86L163.05,190a11.38,11.38,0,0,1-2.18-.86" />
                    <path class="logo-cls-1"
                        d="M163.05,190l-18.27-18.13a13.77,13.77,0,0,0,2.14.4l18.27,18.13a14,14,0,0,1-2.14-.4" />
                    <path class="logo-cls-1"
                        d="M165.19,190.4l-18.27-18.13a16.38,16.38,0,0,0,1.75.09l18.27,18.13a16.38,16.38,0,0,1-1.75-.09" />
                </g>
            </g>
            <polygon class="logo-cls-1" points="19.89 147.19 1.62 129.06 1.65 105.27 19.92 123.4 19.89 147.19" />
            <polygon class="logo-cls-1" points="269.1 156.65 251.47 139.16 296.56 139.16 314.19 156.65 269.1 156.65" />
            <polygon class="logo-cls-1"
                points="231.38 213.15 213.75 195.66 213.85 107.48 231.49 124.97 231.38 213.15" />
            <polygon class="logo-cls-1"
                points="231.49 124.97 213.85 107.48 298.87 107.48 316.51 124.97 231.49 124.97" />
            <path class="logo-cls-1"
                d="M156.77,128.37,175,146.5c3.78,3.74,4.94,10.86,4.93,21.09,0,13-2.33,22.9-13,22.9l-18.27-18.13c10.7,0,13-9.87,13-22.9C161.71,139.23,160.55,132.11,156.77,128.37Z" />
            <g class="logo-cls-12">
                <g class="logo-cls-3">
                    <path class="logo-cls-1" d="M166.94,190.49l-18.27-18.13h.72l18.27,18.13h-.72" />
                    <path class="logo-cls-1"
                        d="M167.66,190.48l-18.27-18.13a14.51,14.51,0,0,0,2.16-.26l18.27,18.13a14.35,14.35,0,0,1-2.16.26" />
                    <path class="logo-cls-1"
                        d="M169.82,190.22l-18.27-18.13a10.53,10.53,0,0,0,2-.59l18.28,18.13a10.87,10.87,0,0,1-2,.59" />
                    <path class="logo-cls-1"
                        d="M171.8,189.63,153.52,171.5c6.59-2.67,8.16-11.28,8.18-22,0-10.23-1.15-17.35-4.93-21.09L175,146.5c3.78,3.74,4.94,10.86,4.93,21.09,0,10.77-1.59,19.37-8.17,22" />
                </g>
            </g>
            <path class="logo-cls-1"
                d="M188.34,117.43l18.27,18.13c-9.09-9-22.64-14.4-39.33-14.4L149,103C165.7,103,179.25,108.41,188.34,117.43Z" />
            <g class="logo-cls-13">
                <g class="logo-cls-3">
                    <path class="logo-cls-1"
                        d="M167.28,121.16,149,103a73.18,73.18,0,0,1,7.8.41l18.27,18.13a72.9,72.9,0,0,0-7.8-.41" />
                    <path class="logo-cls-1"
                        d="M175.08,121.57l-18.27-18.13a62.81,62.81,0,0,1,10.07,1.9l18.28,18.13a63.14,63.14,0,0,0-10.08-1.9" />
                    <path class="logo-cls-1"
                        d="M185.16,123.47l-18.28-18.13a52.87,52.87,0,0,1,10.37,4l18.27,18.13a53,53,0,0,0-10.36-4" />
                    <path class="logo-cls-1"
                        d="M195.52,127.52l-18.27-18.13a45.51,45.51,0,0,1,11.09,8l18.27,18.13a45.32,45.32,0,0,0-11.09-8" />
                </g>
            </g>
            <path class="logo-cls-1"
                d="M126.33,199.81l-18.27-18.13c-8.29-8.22-12.58-19.49-12.56-32.22C95.53,125.05,110.26,103,149,103l18.27,18.13c-38.75,0-53.48,22-53.51,46.43C113.75,180.32,118,191.59,126.33,199.81Z" />
            <g class="logo-cls-14">
                <g class="logo-cls-3">
                    <path class="logo-cls-1"
                        d="M126.33,199.81l-18.27-18.13c-8.29-8.22-12.58-19.49-12.56-32.22,0-17.72,7.79-34.18,26.87-41.87l18.27,18.13c-19.08,7.69-26.85,24.15-26.87,41.87,0,12.73,4.27,24,12.56,32.22" />
                    <path class="logo-cls-1"
                        d="M140.64,125.72l-18.27-18.13a57.48,57.48,0,0,1,10.24-3l18.28,18.13a57.35,57.35,0,0,0-10.25,3" />
                    <path class="logo-cls-1"
                        d="M150.89,122.69l-18.28-18.13a77.81,77.81,0,0,1,12.16-1.44L163,121.25a77.54,77.54,0,0,0-12.15,1.44" />
                    <path class="logo-cls-1"
                        d="M163,121.25l-18.27-18.13c1.38-.06,2.79-.09,4.24-.09l18.27,18.13c-1.44,0-2.86,0-4.24.09" />
                </g>
            </g>
            <polygon class="logo-cls-1" points="45.57 211.54 27.3 193.41 27.38 129.06 45.65 147.19 45.57 211.54" />
            <polygon class="logo-cls-1" points="19.92 123.4 1.65 105.27 90.21 105.27 108.48 123.4 19.92 123.4" />
            <polygon class="logo-cls-10"
                points="316.51 124.97 316.48 148.76 269.11 148.76 269.1 156.65 314.19 156.65 314.16 180.46 269.07 180.46 269.06 189.48 319.84 189.48 315.26 213.15 231.38 213.15 231.49 124.97 316.51 124.97" />
            <path class="logo-cls-10"
                d="M167.28,121.16c31.69,0,52.09,19.39,52.05,46.3,0,25.91-16.45,46.32-53.75,46.32-33.65,0-51.85-20-51.81-46.19C113.8,143.18,128.53,121.16,167.28,121.16Zm-.34,69.33c10.7,0,13-9.87,13-22.9,0-15.77-2.76-24.16-13.58-24.16-9.72,0-13.24,8.39-13.26,23.41,0,13.78,2.88,23.65,13.81,23.65" />
            <polygon class="logo-cls-10"
                points="108.48 123.4 108.45 147.19 82.93 147.19 82.85 211.54 45.57 211.54 45.65 147.19 19.89 147.19 19.92 123.4 108.48 123.4" />
            <path class="logo-cls-1"
                d="M290.65,14l18.27,18.13c-8.45-8.38-22.39-14-43.31-14L247.34,0C268.26,0,282.2,5.62,290.65,14Z" />
            <g class="logo-cls-15">
                <g class="logo-cls-3">
                    <path class="logo-cls-1"
                        d="M265.61,18.13,247.34,0a100.66,100.66,0,0,1,10.89.56L276.5,18.69a100.66,100.66,0,0,0-10.89-.56" />
                    <path class="logo-cls-1"
                        d="M276.5,18.69,258.23.56a74.43,74.43,0,0,1,12,2.23l18.27,18.13a74.43,74.43,0,0,0-12-2.23" />
                    <path class="logo-cls-1"
                        d="M288.49,20.92,270.22,2.79a54.1,54.1,0,0,1,10.53,4.08L299,25a54.1,54.1,0,0,0-10.53-4.08" />
                    <path class="logo-cls-1"
                        d="M299,25,280.75,6.87a40.15,40.15,0,0,1,9.9,7.13l18.27,18.13A40.41,40.41,0,0,0,299,25" />
                </g>
            </g>
            <polygon class="logo-cls-1" points="132.12 22.08 113.85 3.95 163.05 3.95 181.32 22.08 132.12 22.08" />
            <polygon class="logo-cls-1" points="18.3 22.08 0.03 3.95 88.57 3.95 106.84 22.08 18.3 22.08" />
            <polygon class="logo-cls-1" points="18.27 45.87 0 27.74 0.03 3.95 18.3 22.08 18.27 45.87" />
            <polygon class="logo-cls-1" points="279.28 78.1 261.01 59.97 300.53 59.97 318.8 78.1 279.28 78.1" />
            <path class="logo-cls-1"
                d="M257.07,86.77,238.8,68.64a11.63,11.63,0,0,0,8.59,3.26c9.29,0,12.18-5.45,13.62-11.93L279.28,78.1C277.84,84.58,275,90,265.66,90A11.64,11.64,0,0,1,257.07,86.77Z" />
            <g class="logo-cls-16">
                <g class="logo-cls-3">
                    <path class="logo-cls-1"
                        d="M257.07,86.77,238.8,68.64a10.66,10.66,0,0,0,2.62,1.92l18.27,18.13a10.86,10.86,0,0,1-2.62-1.92" />
                    <path class="logo-cls-1"
                        d="M259.69,88.69,241.42,70.56a10.65,10.65,0,0,0,2.17.85l18.27,18.13a10.65,10.65,0,0,1-2.17-.85" />
                    <path class="logo-cls-1"
                        d="M261.86,89.54,243.59,71.41a12.33,12.33,0,0,0,2.11.4L264,89.94a12.52,12.52,0,0,1-2.11-.4" />
                    <path class="logo-cls-1"
                        d="M264,89.94,245.7,71.81a15.26,15.26,0,0,0,1.69.09l1,0L266.64,90l-1,0a15.4,15.4,0,0,1-1.69-.09" />
                    <path class="logo-cls-1"
                        d="M266.64,90,248.37,71.88a17.59,17.59,0,0,0,2.75-.32l18.27,18.13a17.59,17.59,0,0,1-2.75.32" />
                    <path class="logo-cls-1"
                        d="M269.39,89.69,251.12,71.56a12.64,12.64,0,0,0,2.3-.69L271.7,89a12.75,12.75,0,0,1-2.31.69" />
                    <path class="logo-cls-1"
                        d="M271.7,89,253.42,70.87C258.08,69,259.94,64.76,261,60L279.28,78.1c-1.06,4.79-2.93,9-7.58,10.9" />
                </g>
            </g>
            <path class="logo-cls-1"
                d="M256.55,26.28l18.27,18.13c2.36,2.34,3.4,5.73,4,9.29L260.51,35.57C260,32,258.91,28.62,256.55,26.28Z" />
            <g class="logo-cls-17">
                <g class="logo-cls-3">
                    <path class="logo-cls-1"
                        d="M278.78,53.7,260.51,35.57c-.56-3.56-1.6-6.95-4-9.29l18.27,18.13c2.36,2.34,3.4,5.73,4,9.29" />
                </g>
            </g>
            <path class="logo-cls-1"
                d="M222,99.53,203.71,81.4c-8.43-8.37-12.85-19.93-12.83-33.64C190.91,22.2,207,0,247.34,0l18.27,18.13c-40.3,0-56.43,22.2-56.46,47.76C209.13,79.6,213.56,91.16,222,99.53Z" />
            <g class="logo-cls-18">
                <g class="logo-cls-3">
                    <path class="logo-cls-1"
                        d="M222,99.53,203.71,81.4c-8.43-8.37-12.85-19.93-12.83-33.64,0-18.37,8.35-35,28-42.9L237.14,23c-19.64,7.91-28,24.53-28,42.9,0,13.71,4.41,25.27,12.84,33.64" />
                    <path class="logo-cls-1"
                        d="M237.14,23,218.86,4.86a62.37,62.37,0,0,1,10.91-3.22L248,19.77A62.25,62.25,0,0,0,237.14,23" />
                    <path class="logo-cls-1"
                        d="M248,19.77,229.77,1.64a83.32,83.32,0,0,1,13-1.54l18.27,18.13a83.46,83.46,0,0,0-13,1.54" />
                    <path class="logo-cls-1"
                        d="M261.05,18.23,242.78.1c1.49-.07,3-.1,4.56-.1l18.27,18.13c-1.55,0-3.07,0-4.56.1" />
                </g>
            </g>
            <polygon class="logo-cls-1" points="173.44 110.22 155.16 92.09 151.88 79.57 170.15 97.7 173.44 110.22" />
            <polygon class="logo-cls-1" points="148.82 73.91 130.55 55.78 145 55.78 163.27 73.91 148.82 73.91" />
            <path class="logo-cls-1"
                d="M163.27,73.91,145,55.78c-2.19-9.52-4.59-19.53-6.9-27.78l18.28,18.13C158.68,54.38,161.08,64.39,163.27,73.91Z" />
            <g class="logo-cls-19">
                <g class="logo-cls-3">
                    <path class="logo-cls-1"
                        d="M163.27,73.91,145,55.78c-2.19-9.52-4.59-19.53-6.9-27.78l18.28,18.13c2.3,8.25,4.7,18.26,6.89,27.78" />
                </g>
            </g>
            <polygon class="logo-cls-1" points="102.6 110.22 84.33 92.09 113.85 3.95 132.12 22.08 102.6 110.22" />
            <polygon class="logo-cls-1" points="43.93 110.22 25.66 92.09 25.74 27.74 44.01 45.87 43.93 110.22" />
            <path class="logo-cls-10"
                d="M265.61,18.13c36.13,0,51.42,16.74,53.62,35.57H278.78c-1-6.5-3.63-12.46-13.06-12.46s-14.14,7.91-14.16,24.51c0,12,2.19,24.28,14.1,24.28,9.29,0,12.18-5.45,13.62-11.93H318.8c-4.46,25-24.64,36.07-54.48,36.07-35.46,0-55.21-19.33-55.17-48.28C209.18,40.33,225.31,18.13,265.61,18.13Z" />
            <path class="logo-cls-10"
                d="M181.32,22.08l32,88.14H173.44L170.15,97.7H142.1L139,110.22H102.6l29.52-88.14Zm-32.5,51.83h14.45c-2.19-9.52-4.59-19.53-6.89-27.78h-1c-1.71,8.25-4.65,19.78-6.59,27.78" />
            <polygon class="logo-cls-10"
                points="106.84 22.08 106.81 45.87 81.31 45.87 81.23 110.22 43.93 110.22 44.01 45.87 18.27 45.87 18.3 22.08 106.84 22.08" />
        </g>
    </g>
</svg>