<svg xmlns="http://www.w3.org/2000/svg" xmlns:xlink="http://www.w3.org/1999/xlink" viewBox="0 0 310 310">
    <defs>
        <style>
            .logocls1 {
                fill: #1c1c1c;
            }

            .logocls2 {
                fill: none;
            }

            .logocls3 {
                clip-path: url(#clip-path);
            }

            .logocls4 {
                isolation: isolate;
            }

            .logocls5 {
                clip-path: url(#clip-path-2);
            }

            .logocls6 {
                clip-path: url(#clip-path-3);
            }

            .logocls7 {
                clip-path: url(#clip-path-4);
            }

            .logocls8 {
                clip-path: url(#clip-path-5);
            }

            .logocls9 {
                clip-path: url(#clip-path-6);
            }

            .logocls10 {
                clip-path: url(#clip-path-7);
            }

            .logocls11 {
                fill: #ffa143;
            }

            .logocls12 {
                clip-path: url(#clip-path-8);
            }

            .logocls13 {
                clip-path: url(#clip-path-9);
            }

            .logocls14 {
                clip-path: url(#clip-path-10);
            }

            .logocls15 {
                clip-path: url(#clip-path-11);
            }

            .logocls16 {
                clip-path: url(#clip-path-12);
            }

            .logocls17 {
                clip-path: url(#clip-path-13);
            }

            .logocls18 {
                clip-path: url(#clip-path-14);
            }

            .logocls19 {
                clip-path: url(#clip-path-15);
            }

            .logocls20 {
                clip-path: url(#clip-path-16);
            }
        </style>
        <clipPath id="clip-path">
            <path class="logocls1"
                d="M200.34,271.29l-14-13.37c2.18,2.09,5.28,3.25,9.25,3.25l14,13.37C205.62,274.54,202.53,273.38,200.34,271.29Z" />
        </clipPath>
        <clipPath id="clip-path-2">
            <path class="logocls1"
                d="M204.81,237.55l14,13.37c2.44,2.33,3.76,5.86,3.75,10.31,0,7.29-4.52,13.31-12.95,13.31l-14-13.37c8.42,0,12.93-6,12.94-13.32C208.57,243.41,207.25,239.88,204.81,237.55Z" />
        </clipPath>
        <clipPath id="clip-path-3">
            <path class="logocls1"
                d="M258.31,219.78l14,13.38c-9.22-8.83-24-13.51-41.85-13.51l-14-13.37C234.33,206.28,249.08,211,258.31,219.78Z" />
        </clipPath>
        <clipPath id="clip-path-4">
            <path class="logocls1"
                d="M196.72,226.57l-14-13.37c7.84-4.55,19.8-6.92,33.71-6.92l14,13.37C216.53,219.65,204.57,222,196.72,226.57Z" />
        </clipPath>
        <clipPath id="clip-path-5">
            <path class="logocls1"
                d="M205.08,196.63l14,13.38a10.71,10.71,0,0,1,2.56,4.17l-14-13.37A10.84,10.84,0,0,0,205.08,196.63Z" />
        </clipPath>
        <clipPath id="clip-path-6">
            <path class="logocls1"
                d="M153.82,287.13l-14-13.37c-11.24-10.76-16.68-26.06-16.66-45,0-35.39,21.64-64.74,73.15-64.74,30,0,46.93,7.65,56.3,16.62l14,13.37c-9.37-9-26.26-16.62-56.31-16.62-51.51,0-73.09,29.36-73.14,64.74C137.14,261.07,142.58,276.38,153.82,287.13Z" />
        </clipPath>
        <clipPath id="clip-path-7">
            <path class="logocls1"
                d="M49.16,193.76l-14-13.38c15.48-1.27,26.84-6.2,33.31-13.68l14,13.37C76,187.55,64.65,192.48,49.16,193.76Z" />
        </clipPath>
        <clipPath id="clip-path-8">
            <path class="logocls1"
                d="M151.45,151.8l-14.32-14.21a9.05,9.05,0,0,0,6.7,2.5l14.32,14.21A9.05,9.05,0,0,1,151.45,151.8Z" />
        </clipPath>
        <clipPath id="clip-path-9">
            <path class="logocls1"
                d="M150.18,105.61l14.32,14.21c3,2.93,3.87,8.51,3.86,16.53,0,10.21-1.82,18-10.21,18l-14.32-14.21c8.39,0,10.2-7.74,10.21-18C154.05,114.12,153.14,108.54,150.18,105.61Z" />
        </clipPath>
        <clipPath id="clip-path-10">
            <path class="logocls1"
                d="M174.92,97l14.33,14.21C182.12,104.17,171.5,100,158.42,100L144.1,85.75C157.18,85.75,167.8,90,174.92,97Z" />
        </clipPath>
        <clipPath id="clip-path-11">
            <path class="logocls1"
                d="M126.32,161.6,112,147.39c-6.49-6.44-9.85-15.28-9.84-25.25,0-19.13,11.57-36.39,41.94-36.39L158.42,100c-30.37,0-41.92,17.26-41.94,36.39C116.47,146.32,119.83,155.16,126.32,161.6Z" />
        </clipPath>
        <clipPath id="clip-path-12">
            <path class="logocls1"
                d="M255.11,16l14.32,14.21c-6.63-6.57-17.55-11-33.94-11L221.17,5C237.56,5,248.48,9.4,255.11,16Z" />
        </clipPath>
        <clipPath id="clip-path-13">
            <path class="logocls1"
                d="M228.79,73,214.47,58.79a9.09,9.09,0,0,0,6.73,2.56c7.28,0,9.55-4.27,10.68-9.35L246.2,66.21c-1.13,5.08-3.4,9.35-10.68,9.35A9.09,9.09,0,0,1,228.79,73Z" />
        </clipPath>
        <clipPath id="clip-path-14">
            <path class="logocls1"
                d="M228.38,25.59,242.7,39.8c1.85,1.84,2.67,4.5,3.11,7.29L231.49,32.88C231.05,30.09,230.23,27.43,228.38,25.59Z" />
        </clipPath>
        <clipPath id="clip-path-15">
            <path class="logocls1"
                d="M201.29,83,187,68.79c-6.6-6.55-10.07-15.61-10.06-26.36,0-20,12.67-37.43,44.26-37.43l14.32,14.21c-31.59,0-44.23,17.39-44.26,37.43C191.22,67.39,194.69,76.45,201.29,83Z" />
        </clipPath>
        <clipPath id="clip-path-16">
            <path class="logocls1"
                d="M155.28,62.93,141,48.72c-1.72-7.46-3.6-15.31-5.41-21.78l14.32,14.21C151.68,47.62,153.56,55.47,155.28,62.93Z" />
        </clipPath>
    </defs>
    <g id="Layer_2" data-name="Layer 2">
        <g id="Layer_1-2" data-name="Layer 1">
            <rect class="logocls2" width="310" height="310" />
            <path class="logocls1"
                d="M200.34,271.29l-14-13.37c2.18,2.09,5.28,3.25,9.25,3.25l14,13.37C205.62,274.54,202.53,273.38,200.34,271.29Z" />
            <g class="logocls3">
                <g class="logocls4">
                    <path class="logocls1"
                        d="M200.34,271.29l-14-13.37a10.64,10.64,0,0,0,2.62,1.84l14,13.37a10.7,10.7,0,0,1-2.63-1.84" />
                    <path class="logocls1"
                        d="M203,273.13l-14-13.37a12.4,12.4,0,0,0,2.35.88l14,13.38a12.85,12.85,0,0,1-2.35-.89" />
                    <path class="logocls1"
                        d="M205.32,274l-14-13.38a15.44,15.44,0,0,0,2.36.43l14,13.37a15.45,15.45,0,0,1-2.36-.42" />
                    <path class="logocls1"
                        d="M207.68,274.44l-14-13.37c.62.06,1.25.1,1.92.1l14,13.37a16.82,16.82,0,0,1-1.91-.1" />
                </g>
            </g>
            <path class="logocls1"
                d="M204.81,237.55l14,13.37c2.44,2.33,3.76,5.86,3.75,10.31,0,7.29-4.52,13.31-12.95,13.31l-14-13.37c8.42,0,12.93-6,12.94-13.32C208.57,243.41,207.25,239.88,204.81,237.55Z" />
            <g class="logocls5">
                <g class="logocls4">
                    <path class="logocls1" d="M209.59,274.54l-14-13.37.72,0,14,13.37-.73,0" />
                    <path class="logocls1"
                        d="M210.32,274.52l-14-13.37a13.93,13.93,0,0,0,2.3-.27l14,13.38a15,15,0,0,1-2.29.26" />
                    <path class="logocls1"
                        d="M212.61,274.26l-14-13.38a12.82,12.82,0,0,0,2.23-.64l14,13.37a12.94,12.94,0,0,1-2.24.65" />
                    <path class="logocls1"
                        d="M214.85,273.61l-14-13.37c5-2,7.69-6.8,7.69-12.39,0-4.44-1.31-8-3.75-10.3l14,13.37c2.44,2.33,3.76,5.86,3.75,10.31,0,5.59-2.66,10.43-7.69,12.38" />
                </g>
            </g>
            <path class="logocls1"
                d="M258.31,219.78l14,13.38c-9.22-8.83-24-13.51-41.85-13.51l-14-13.37C234.33,206.28,249.08,211,258.31,219.78Z" />
            <g class="logocls6">
                <g class="logocls4">
                    <path class="logocls1"
                        d="M230.43,219.65l-14-13.37a93.84,93.84,0,0,1,9.64.48l14,13.38a91.24,91.24,0,0,0-9.65-.49" />
                    <path class="logocls1"
                        d="M240.08,220.14l-14-13.38a73.23,73.23,0,0,1,11.54,2.09l14,13.37a74.84,74.84,0,0,0-11.54-2.08" />
                    <path class="logocls1"
                        d="M251.62,222.22l-14-13.37a56,56,0,0,1,10.62,4l14,13.38a55.26,55.26,0,0,0-10.61-4" />
                    <path class="logocls1"
                        d="M262.23,226.19l-14-13.38a41.22,41.22,0,0,1,10.05,7l14,13.38a40.49,40.49,0,0,0-10-7" />
                </g>
            </g>
            <path class="logocls1"
                d="M196.72,226.57l-14-13.37c7.84-4.55,19.8-6.92,33.71-6.92l14,13.37C216.53,219.65,204.57,222,196.72,226.57Z" />
            <g class="logocls7">
                <g class="logocls4">
                    <path class="logocls1"
                        d="M196.72,226.57l-14-13.37a36.66,36.66,0,0,1,5.3-2.51l14,13.37a38.28,38.28,0,0,0-5.3,2.51" />
                    <path class="logocls1"
                        d="M202,224.06l-14-13.37a58,58,0,0,1,9.83-2.77l14,13.38a58.4,58.4,0,0,0-9.84,2.76" />
                    <path class="logocls1"
                        d="M211.86,221.3l-14-13.38a91.78,91.78,0,0,1,13.62-1.54l14,13.38a90.32,90.32,0,0,0-13.62,1.54" />
                    <path class="logocls1"
                        d="M225.48,219.76l-14-13.38c1.62-.07,3.27-.1,5-.1l14,13.37c-1.68,0-3.33,0-5,.11" />
                </g>
            </g>
            <path class="logocls1"
                d="M205.08,196.63l14,13.38a10.71,10.71,0,0,1,2.56,4.17l-14-13.37A10.84,10.84,0,0,0,205.08,196.63Z" />
            <g class="logocls8">
                <g class="logocls4">
                    <path class="logocls1"
                        d="M221.62,214.18l-14-13.37a10.84,10.84,0,0,0-2.57-4.18l14,13.38a10.71,10.71,0,0,1,2.56,4.17" />
                </g>
            </g>
            <path class="logocls1"
                d="M153.82,287.13l-14-13.37c-11.24-10.76-16.68-26.06-16.66-45,0-35.39,21.64-64.74,73.15-64.74,30,0,46.93,7.65,56.3,16.62l14,13.37c-9.37-9-26.26-16.62-56.31-16.62-51.51,0-73.09,29.36-73.14,64.74C137.14,261.07,142.58,276.38,153.82,287.13Z" />
            <g class="logocls9">
                <g class="logocls4">
                    <path class="logocls1"
                        d="M153.82,287.13l-14-13.37c-11.24-10.76-16.68-26.06-16.66-45,0-25.92,11.63-48.61,38.08-58.89l14,13.37c-26.45,10.28-38.05,33-38.08,58.89,0,19,5.42,34.3,16.66,45" />
                    <path class="logocls1"
                        d="M175.24,183.19l-14-13.37A80.8,80.8,0,0,1,175,165.9l14,13.37a80.68,80.68,0,0,0-13.73,3.92" />
                    <path class="logocls1"
                        d="M189,179.27,175,165.9a106.1,106.1,0,0,1,15.88-1.82l14,13.38A106.12,106.12,0,0,0,189,179.27" />
                    <path class="logocls1"
                        d="M204.86,177.46l-14-13.38c1.78-.07,3.59-.11,5.45-.11a152.53,152.53,0,0,1,15.44.75l14,13.38a149.73,149.73,0,0,0-15.45-.76c-1.85,0-3.67,0-5.44.12" />
                    <path class="logocls1"
                        d="M225.75,178.1l-14-13.38a102.91,102.91,0,0,1,16,2.86l14,13.38a103.13,103.13,0,0,0-16-2.86" />
                    <path class="logocls1"
                        d="M241.74,181l-14-13.38A69.61,69.61,0,0,1,241,172.51l14,13.38A68.42,68.42,0,0,0,241.74,181" />
                    <path class="logocls1"
                        d="M255,185.89l-14-13.38a48,48,0,0,1,11.64,8.08l14,13.37A47.54,47.54,0,0,0,255,185.89" />
                </g>
            </g>
            <polygon class="logocls1" points="66.46 302.26 52.48 288.88 52.58 211.02 66.56 224.39 66.46 302.26" />
            <polygon class="logocls1" points="82.47 180.07 68.5 166.7 111.59 166.7 125.57 180.07 82.47 180.07" />
            <polygon class="logocls1" points="49.13 221.65 35.15 208.27 35.19 180.38 49.16 193.76 49.13 221.65" />
            <path class="logocls1"
                d="M49.16,193.76l-14-13.38c15.48-1.27,26.84-6.2,33.31-13.68l14,13.37C76,187.55,64.65,192.48,49.16,193.76Z" />
            <g class="logocls10">
                <g class="logocls4">
                    <path class="logocls1"
                        d="M49.16,193.76l-14-13.38a77.12,77.12,0,0,0,8.81-1.2l14,13.38a81.51,81.51,0,0,1-8.81,1.2" />
                    <path class="logocls1"
                        d="M58,192.56,44,179.18a59,59,0,0,0,10.08-2.85l14,13.37A60,60,0,0,1,58,192.56" />
                    <path class="logocls1"
                        d="M68.06,189.7l-14-13.37A35.93,35.93,0,0,0,68.5,166.7l14,13.37a35.79,35.79,0,0,1-14.41,9.63" />
                </g>
            </g>
            <path class="logocls11"
                d="M230.43,219.65c30.76,0,52.29,13.86,52.26,38.85-.05,33.36-34.15,46.5-72.15,46.5-50,0-73.43-23.52-73.38-62.92.05-35.38,21.63-64.74,73.14-64.74,53.28,0,65.21,24.07,67.14,36.84H221.62c-1.55-4.19-4.3-6.94-11.55-6.94-8.62,0-13.13,5.66-13.35,19.33C204.57,222,216.53,219.65,230.43,219.65Zm-20.84,54.89c8.43,0,12.94-6,12.95-13.31,0-8.39-4.68-13.5-12.72-13.5-7,0-13.32,3.65-13.33,12.76,0,8.58,4.48,14.05,13.1,14.05" />
            <path class="logocls11"
                d="M125.57,180.07l-.15,122.19h-59l.1-77.87a131.43,131.43,0,0,1-17.43-2.74l0-27.89c15.49-1.28,26.84-6.21,33.31-13.69Z" />
            <polygon class="logocls1" points="238.19 153.5 224.37 139.79 264.16 139.79 277.98 153.5 238.19 153.5" />
            <path class="logocls1"
                d="M151.45,151.8l-14.32-14.21a9.05,9.05,0,0,0,6.7,2.5l14.32,14.21A9.05,9.05,0,0,1,151.45,151.8Z" />
            <g class="logocls12">
                <g class="logocls4">
                    <path class="logocls1"
                        d="M151.45,151.8l-14.32-14.21a8.21,8.21,0,0,0,2,1.44l14.32,14.21a8.21,8.21,0,0,1-2-1.44" />
                    <path class="logocls1"
                        d="M153.4,153.24,139.08,139a8.7,8.7,0,0,0,1.71.67l14.32,14.21a8.7,8.7,0,0,1-1.71-.67" />
                    <path class="logocls1"
                        d="M155.11,153.91,140.79,139.7a10.52,10.52,0,0,0,1.67.32l14.32,14.21a10.52,10.52,0,0,1-1.67-.32" />
                    <path class="logocls1"
                        d="M156.78,154.23,142.46,140c.44,0,.9.07,1.37.07l14.32,14.21c-.47,0-.93,0-1.37-.07" />
                </g>
            </g>
            <polygon class="logocls1" points="42.9 120.36 28.58 106.15 28.6 87.5 42.92 101.71 42.9 120.36" />
            <polygon class="logocls1" points="238.22 127.78 224.4 114.06 259.74 114.06 273.56 127.78 238.22 127.78" />
            <polygon class="logocls1" points="208.66 172.06 194.84 158.34 194.92 89.23 208.74 102.95 208.66 172.06" />
            <polygon class="logocls1" points="208.74 102.95 194.92 89.23 261.55 89.23 275.37 102.95 208.74 102.95" />
            <path class="logocls1"
                d="M150.18,105.61l14.32,14.21c3,2.93,3.87,8.51,3.86,16.53,0,10.21-1.82,18-10.21,18l-14.32-14.21c8.39,0,10.2-7.74,10.21-18C154.05,114.12,153.14,108.54,150.18,105.61Z" />
            <g class="logocls13">
                <g class="logocls4">
                    <path class="logocls1" d="M158.15,154.3l-14.32-14.21h.56l14.32,14.2-.56,0" />
                    <path class="logocls1"
                        d="M158.71,154.28l-14.32-14.2a11,11,0,0,0,1.7-.21l14.32,14.21a9.9,9.9,0,0,1-1.7.2" />
                    <path class="logocls1"
                        d="M160.41,154.08l-14.32-14.21a8.22,8.22,0,0,0,1.55-.46L162,153.62a8.22,8.22,0,0,1-1.55.46" />
                    <path class="logocls1"
                        d="M162,153.62l-14.32-14.21c5.16-2.09,6.39-8.83,6.4-17.27,0-8-.9-13.6-3.86-16.53l14.32,14.21c3,2.93,3.87,8.51,3.86,16.53,0,8.44-1.24,15.18-6.4,17.27" />
                </g>
            </g>
            <path class="logocls1"
                d="M174.92,97l14.33,14.21C182.12,104.17,171.5,100,158.42,100L144.1,85.75C157.18,85.75,167.8,90,174.92,97Z" />
            <g class="logocls14">
                <g class="logocls4">
                    <path class="logocls1"
                        d="M158.42,100,144.1,85.75a57.66,57.66,0,0,1,6.11.32l14.32,14.21a57.66,57.66,0,0,0-6.11-.32" />
                    <path class="logocls1"
                        d="M164.53,100.28,150.21,86.07a49.57,49.57,0,0,1,7.9,1.49l14.32,14.21a49.57,49.57,0,0,0-7.9-1.49" />
                    <path class="logocls1"
                        d="M172.43,101.77,158.11,87.56a41.68,41.68,0,0,1,8.12,3.17l14.32,14.21a41.68,41.68,0,0,0-8.12-3.17" />
                    <path class="logocls1"
                        d="M180.55,104.94,166.23,90.73a35.74,35.74,0,0,1,8.69,6.3l14.33,14.21a36,36,0,0,0-8.7-6.3" />
                </g>
            </g>
            <path class="logocls1"
                d="M126.32,161.6,112,147.39c-6.49-6.44-9.85-15.28-9.84-25.25,0-19.13,11.57-36.39,41.94-36.39L158.42,100c-30.37,0-41.92,17.26-41.94,36.39C116.47,146.32,119.83,155.16,126.32,161.6Z" />
            <g class="logocls15">
                <g class="logocls4">
                    <path class="logocls1"
                        d="M126.32,161.6,112,147.39c-6.49-6.44-9.85-15.28-9.84-25.25,0-13.89,6.1-26.79,21.06-32.82l14.32,14.21c-15,6-21,18.93-21.06,32.82,0,10,3.35,18.81,9.84,25.25" />
                    <path class="logocls1"
                        d="M137.54,103.53,123.22,89.32a45.87,45.87,0,0,1,8-2.37l14.32,14.21a45.87,45.87,0,0,0-8,2.37" />
                    <path class="logocls1"
                        d="M145.57,101.16,131.25,87a61.65,61.65,0,0,1,9.52-1.13L155.09,100a61.65,61.65,0,0,0-9.52,1.13" />
                    <path class="logocls1"
                        d="M155.09,100,140.77,85.82c1.09,0,2.2-.07,3.33-.07L158.42,100c-1.13,0-2.24,0-3.33.07" />
                </g>
            </g>
            <polygon class="logocls1" points="63.03 170.79 48.71 156.58 48.77 106.15 63.09 120.36 63.03 170.79" />
            <polygon class="logocls1" points="42.92 101.71 28.6 87.5 98.02 87.5 112.33 101.71 42.92 101.71" />
            <polygon class="logocls11"
                points="275.37 102.95 275.35 121.59 238.23 121.59 238.22 127.78 273.56 127.78 273.54 146.43 238.19 146.43 238.19 153.5 277.98 153.5 274.4 172.06 208.66 172.06 208.74 102.95 275.37 102.95" />
            <path class="logocls11"
                d="M158.42,100c24.84,0,40.82,15.2,40.79,36.29,0,20.31-12.89,36.3-42.12,36.3-26.38,0-40.64-15.69-40.61-36.2C116.5,117.22,128.05,100,158.42,100Zm-.27,54.34c8.39,0,10.2-7.74,10.21-18,0-12.36-2.16-18.93-10.64-18.93-7.61,0-10.38,6.57-10.39,18.34,0,10.8,2.25,18.54,10.82,18.54" />
            <polygon class="logocls11"
                points="112.33 101.71 112.31 120.36 92.31 120.36 92.25 170.79 63.03 170.79 63.09 120.36 42.9 120.36 42.92 101.71 112.33 101.71" />
            <path class="logocls1"
                d="M255.11,16l14.32,14.21c-6.63-6.57-17.55-11-33.94-11L221.17,5C237.56,5,248.48,9.4,255.11,16Z" />
            <g class="logocls16">
                <g class="logocls4">
                    <path class="logocls1"
                        d="M235.49,19.21,221.17,5a78.76,78.76,0,0,1,8.53.44L244,19.65a78.76,78.76,0,0,0-8.53-.44" />
                    <path class="logocls1"
                        d="M244,19.65,229.7,5.44a57.63,57.63,0,0,1,9.4,1.75L253.42,21.4a57.63,57.63,0,0,0-9.4-1.75" />
                    <path class="logocls1"
                        d="M253.42,21.4,239.1,7.19a42.19,42.19,0,0,1,8.25,3.19l14.32,14.21a42.19,42.19,0,0,0-8.25-3.19" />
                    <path class="logocls1"
                        d="M261.67,24.59,247.35,10.38A31.91,31.91,0,0,1,255.11,16l14.32,14.21a31.91,31.91,0,0,0-7.76-5.59" />
                </g>
            </g>
            <polygon class="logocls1" points="130.86 22.31 116.54 8.1 155.1 8.1 169.42 22.31 130.86 22.31" />
            <polygon class="logocls1" points="41.66 22.31 27.34 8.1 96.73 8.1 111.05 22.31 41.66 22.31" />
            <polygon class="logocls1" points="41.63 40.95 27.31 26.74 27.34 8.1 41.66 22.31 41.63 40.95" />
            <polygon class="logocls1" points="246.2 66.21 231.88 52 262.85 52 277.17 66.21 246.2 66.21" />
            <path class="logocls1"
                d="M228.79,73,214.47,58.79a9.09,9.09,0,0,0,6.73,2.56c7.28,0,9.55-4.27,10.68-9.35L246.2,66.21c-1.13,5.08-3.4,9.35-10.68,9.35A9.09,9.09,0,0,1,228.79,73Z" />
            <g class="logocls17">
                <g class="logocls4">
                    <path class="logocls1"
                        d="M228.79,73,214.47,58.79a8.17,8.17,0,0,0,2.06,1.51l14.32,14.21A8.17,8.17,0,0,1,228.79,73" />
                    <path class="logocls1"
                        d="M230.85,74.51,216.53,60.3a8.16,8.16,0,0,0,1.69.67l14.32,14.21a8.16,8.16,0,0,1-1.69-.67" />
                    <path class="logocls1"
                        d="M232.54,75.18,218.22,61a10.62,10.62,0,0,0,1.66.31L234.2,75.49a10.62,10.62,0,0,1-1.66-.31" />
                    <path class="logocls1"
                        d="M234.2,75.49,219.88,61.28a11.31,11.31,0,0,0,1.32.07H222l14.32,14.21h-.77a11.31,11.31,0,0,1-1.32-.07" />
                    <path class="logocls1"
                        d="M236.29,75.55,222,61.34a13.75,13.75,0,0,0,2.15-.26l14.33,14.21a15.39,15.39,0,0,1-2.16.26" />
                    <path class="logocls1"
                        d="M238.45,75.29,224.12,61.08a10.12,10.12,0,0,0,1.81-.53l14.32,14.21a10.26,10.26,0,0,1-1.8.53" />
                    <path class="logocls1"
                        d="M240.25,74.76,225.93,60.55c3.66-1.47,5.11-4.79,5.95-8.55L246.2,66.21c-.84,3.76-2.29,7.08-5.95,8.55" />
                </g>
            </g>
            <path class="logocls1"
                d="M228.38,25.59,242.7,39.8c1.85,1.84,2.67,4.5,3.11,7.29L231.49,32.88C231.05,30.09,230.23,27.43,228.38,25.59Z" />
            <g class="logocls18">
                <g class="logocls4">
                    <path class="logocls1"
                        d="M245.81,47.09,231.49,32.88c-.44-2.79-1.26-5.45-3.11-7.29L242.7,39.8c1.85,1.84,2.67,4.5,3.11,7.29" />
                </g>
            </g>
            <path class="logocls1"
                d="M201.29,83,187,68.79c-6.6-6.55-10.07-15.61-10.06-26.36,0-20,12.67-37.43,44.26-37.43l14.32,14.21c-31.59,0-44.23,17.39-44.26,37.43C191.22,67.39,194.69,76.45,201.29,83Z" />
            <g class="logocls19">
                <g class="logocls4">
                    <path class="logocls1"
                        d="M201.29,83,187,68.79c-6.6-6.55-10.07-15.61-10.06-26.36,0-14.39,6.55-27.42,21.94-33.62L213.17,23c-15.39,6.2-21.92,19.23-21.94,33.62,0,10.75,3.46,19.81,10.06,26.36" />
                    <path class="logocls1"
                        d="M213.17,23,198.85,8.81a48.21,48.21,0,0,1,8.55-2.53l14.32,14.21A48.21,48.21,0,0,0,213.17,23" />
                    <path class="logocls1"
                        d="M221.72,20.49,207.4,6.28a66.24,66.24,0,0,1,10.19-1.2l14.32,14.21a66.24,66.24,0,0,0-10.19,1.2" />
                    <path class="logocls1"
                        d="M231.91,19.29,217.59,5.08C218.76,5,220,5,221.17,5l14.32,14.21c-1.22,0-2.41,0-3.58.08" />
                </g>
            </g>
            <polygon class="logocls1" points="163.24 91.39 148.92 77.17 146.35 67.36 160.67 81.57 163.24 91.39" />
            <polygon class="logocls1" points="143.95 62.93 129.63 48.72 140.96 48.72 155.28 62.93 143.95 62.93" />
            <path class="logocls1"
                d="M155.28,62.93,141,48.72c-1.72-7.46-3.6-15.31-5.41-21.78l14.32,14.21C151.68,47.62,153.56,55.47,155.28,62.93Z" />
            <g class="logocls20">
                <g class="logocls4">
                    <path class="logocls1"
                        d="M155.28,62.93,141,48.72c-1.72-7.46-3.6-15.31-5.41-21.78l14.32,14.21c1.81,6.47,3.69,14.32,5.41,21.78" />
                </g>
            </g>
            <polygon class="logocls1" points="107.73 91.39 93.41 77.17 116.54 8.1 130.86 22.31 107.73 91.39" />
            <polygon class="logocls1" points="61.74 91.39 47.42 77.17 47.49 26.74 61.81 40.95 61.74 91.39" />
            <path class="logocls11"
                d="M235.49,19.21c28.31,0,40.29,13.12,42,27.88h-31.7C245,42,243,37.32,235.57,37.32s-11.08,6.2-11.1,19.21c0,9.37,1.72,19,11.05,19,7.28,0,9.55-4.27,10.68-9.35h31c-3.5,19.62-19.31,28.27-42.7,28.27-27.79,0-43.26-15.15-43.24-37.84C191.26,36.6,203.9,19.21,235.49,19.21Z" />
            <path class="logocls11"
                d="M169.42,22.31l25,69.08H163.24l-2.57-9.82h-22l-2.4,9.82H107.73l23.13-69.08ZM144,62.93h11.33c-1.72-7.46-3.6-15.31-5.41-21.78h-.75c-1.35,6.47-3.65,15.51-5.17,21.78" />
            <polygon class="logocls11"
                points="111.05 22.31 111.03 40.95 91.04 40.95 90.98 91.39 61.74 91.39 61.81 40.95 41.63 40.95 41.66 22.31 111.05 22.31" />
        </g>
    </g>
</svg>