<svg xmlns="http://www.w3.org/2000/svg" xmlns:xlink="http://www.w3.org/1999/xlink" viewBox="0 0 52.68 50.95"><defs><style>.cls-1{fill:none;}.cls-2{isolation:isolate;}.cls-3{clip-path:url(#clip-path);}.cls-4{fill:#892020;}.cls-5{fill:#851f1f;}.cls-6{fill:#801e1e;}.cls-7{fill:#7c1d1d;}.cls-8{clip-path:url(#clip-path-2);}.cls-9{fill:#781c1c;}.cls-10{fill:#741b1b;}.cls-11{fill:#6f1a1a;}.cls-12{clip-path:url(#clip-path-3);}.cls-13{fill:#ba2b2b;}.cls-14{clip-path:url(#clip-path-4);}</style><clipPath id="clip-path"><path class="cls-1" d="M19.76,38.19,14.54,33a12.66,12.66,0,0,0,9.15,3.59l5.23,5.24A12.71,12.71,0,0,1,19.76,38.19Z"/></clipPath><clipPath id="clip-path-2"><path class="cls-1" d="M32.89,12.76,38.12,18A14,14,0,0,1,42,28.13c0,8-5.37,13.66-13,13.66l-5.23-5.24c7.67,0,13-5.63,13-13.66A13.94,13.94,0,0,0,32.89,12.76Z"/></clipPath><clipPath id="clip-path-3"><path class="cls-1" d="M41.16,6.61l5.23,5.23C42.21,7.66,36.19,5.23,29,5.23L23.79,0C31,0,37,2.43,41.16,6.61Z"/></clipPath><clipPath id="clip-path-4"><path class="cls-1" d="M11.49,44.35,6.27,39.12A22.34,22.34,0,0,1,0,22.89C0,9.35,9.71,0,23.79,0L29,5.23c-14.09,0-23.76,9.35-23.79,22.9A22.35,22.35,0,0,0,11.49,44.35Z"/></clipPath></defs><g id="Layer_2" data-name="Layer 2"><g id="Layer_1-2" data-name="Layer 1"><g class="cls-2"><g class="cls-2"><g class="cls-3"><g class="cls-2"><path class="cls-4" d="M19.76,38.19,14.54,33a11.83,11.83,0,0,0,3.35,2.35l5.23,5.24a12.06,12.06,0,0,1-3.36-2.36"/><path class="cls-5" d="M23.12,40.55l-5.23-5.24a12.4,12.4,0,0,0,2.53.88l5.23,5.23a13,13,0,0,1-2.53-.87"/><path class="cls-6" d="M25.65,41.42l-5.23-5.23a13.91,13.91,0,0,0,2.28.33l5.22,5.23a14,14,0,0,1-2.27-.33"/><path class="cls-7" d="M27.92,41.75,22.7,36.52q.48,0,1,0l5.23,5.24c-.34,0-.67,0-1,0"/></g></g></g><g class="cls-2"><g class="cls-8"><g class="cls-2"><path class="cls-7" d="M28.92,41.79l-5.23-5.24c.45,0,.89,0,1.32,0l5.22,5.23c-.43,0-.87.06-1.31.06"/><path class="cls-9" d="M30.23,41.73,25,36.5a14.84,14.84,0,0,0,2.15-.36l5.22,5.23a14.61,14.61,0,0,1-2.15.36"/><path class="cls-10" d="M32.38,41.37l-5.22-5.23a12.55,12.55,0,0,0,2.21-.77l5.22,5.23a12.27,12.27,0,0,1-2.21.77"/><path class="cls-11" d="M34.59,40.6l-5.22-5.23c4.5-2.06,7.34-6.63,7.35-12.48a13.94,13.94,0,0,0-3.83-10.13L38.12,18A14,14,0,0,1,42,28.13c0,5.84-2.85,10.42-7.36,12.47"/></g></g></g><g class="cls-2"><g class="cls-12"><g class="cls-2"><path class="cls-7" d="M29,5.23,23.79,0c.68,0,1.35,0,2,.06L31,5.3c-.66,0-1.33-.07-2-.07"/><path class="cls-6" d="M31,5.3,25.79.06a28.27,28.27,0,0,1,4.52.67L35.53,6A26.91,26.91,0,0,0,31,5.3"/><path class="cls-5" d="M35.53,6,30.31.73a23.74,23.74,0,0,1,4.77,1.64L40.31,7.6A24.25,24.25,0,0,0,35.53,6"/><path class="cls-4" d="M40.31,7.6,35.08,2.37a21.33,21.33,0,0,1,6.08,4.24l5.23,5.23A21.33,21.33,0,0,0,40.31,7.6"/></g></g></g><path class="cls-13" d="M29,5.23c14.07,0,23.7,9.35,23.66,22.9S43,51,28.89,51,5.19,41.66,5.23,28.13,14.93,5.23,29,5.23Zm-.1,36.56c7.66,0,13-5.64,13-13.66S36.66,14.4,29,14.4,16,20,16,28.13s5.29,13.66,13,13.66"/><g class="cls-2"><g class="cls-14"><g class="cls-2"><path class="cls-11" d="M11.49,44.35,6.27,39.12A22.34,22.34,0,0,1,0,22.89c0-9.58,4.87-17,12.68-20.61l5.23,5.23c-7.81,3.56-12.66,11-12.68,20.62a22.35,22.35,0,0,0,6.26,16.22"/><path class="cls-10" d="M17.91,7.51,12.68,2.28A24.48,24.48,0,0,1,16.88.82l5.23,5.23a24.48,24.48,0,0,0-4.2,1.46"/><path class="cls-9" d="M22.11,6.05,16.88.82A27.51,27.51,0,0,1,21.13.11l5.23,5.24a27.12,27.12,0,0,0-4.25.7"/><path class="cls-7" d="M26.36,5.35,21.13.11C22,0,22.89,0,23.79,0L29,5.23c-.91,0-1.79,0-2.66.12"/></g></g></g></g></g></g></svg>