<svg xmlns="http://www.w3.org/2000/svg" viewBox="0 0 500 580"><defs><style>.cls-1{fill:none;}.cls-2{fill:#1c1c1c;}.cls-3{fill:#ffa143;}</style></defs><g id="Layer_2" data-name="Layer 2"><g id="Layer_1-2" data-name="Layer 1"><path class="cls-1" d="M174.23,271.09c.52,1.15,1,2.31,1.59,3.41C175.24,273.4,174.75,272.24,174.23,271.09Z"/><path class="cls-1" d="M181.06,282.77c.72,1,1.43,2,2.21,2.89C182.49,284.73,181.78,283.74,181.06,282.77Z"/><path class="cls-1" d="M177.34,277.13c.62,1.06,1.22,2.13,1.9,3.15C178.56,279.26,178,278.19,177.34,277.13Z"/><path class="cls-1" d="M463.22,418.71c-.26-.16-.54-.3-.8-.45C462.68,418.41,463,418.55,463.22,418.71Z"/><path class="cls-1" d="M468.39,422c-.37-.26-.72-.52-1.1-.77C467.67,421.5,468,421.77,468.39,422Z"/><path class="cls-1" d="M236.74,139H208l-2.22,9a132,132,0,0,1,21.16-1.62,108,108,0,0,1,19,1.64Z"/><path class="cls-1" d="M171.73,264.67c.41,1.24.8,2.49,1.28,3.69C172.53,267.16,172.14,265.91,171.73,264.67Z"/><path class="cls-1" d="M123.7,135,149.09,59.6h-28L121,149.88h15.42l22.91,22.63a61.91,61.91,0,0,1,16.86-14.32h-29Z"/><path class="cls-1" d="M282.9,174.7q-3.24-1.11-6.67-2Q279.66,173.58,282.9,174.7Z"/><path class="cls-1" d="M258.9,169.9c-2.79-.21-5.65-.33-8.57-.33C253.25,169.57,256.11,169.69,258.9,169.9Z"/><path class="cls-1" d="M275.27,172.47c-2.34-.58-4.74-1.08-7.2-1.48C270.53,171.39,272.93,171.89,275.27,172.47Z"/><path class="cls-1" d="M168,240.75c0,2.47.11,4.91.32,7.3C168.08,245.66,168,243.22,168,240.75Z"/><path class="cls-1" d="M168.59,250.37c.19,1.59.36,3.19.64,4.74C169,253.56,168.78,252,168.59,250.37Z"/><path class="cls-1" d="M169.85,257.82c.3,1.36.58,2.74,1,4.07C170.43,260.56,170.15,259.18,169.85,257.82Z"/><path class="cls-1" d="M267.25,170.87c-2.55-.4-5.15-.72-7.82-.93C262.1,170.15,264.7,170.47,267.25,170.87Z"/><path class="cls-1" d="M349.49,270c.05.21.09.42.13.63C349.58,270.44,349.54,270.23,349.49,270Z"/><path class="cls-1" d="M348.46,264.16c0,.17,0,.35.07.52C348.5,264.51,348.49,264.33,348.46,264.16Z"/><path class="cls-1" d="M351,275.57c.08.22.14.45.22.67C351.12,276,351.06,275.79,351,275.57Z"/><path class="cls-1" d="M347.87,258c0,.11,0,.22,0,.33C347.88,258.24,347.88,258.13,347.87,258Z"/><path class="cls-1" d="M358.5,290.11l.44.57Z"/><path class="cls-1" d="M353,280.78c.1.22.19.45.29.67C353.16,281.23,353.07,281,353,280.78Z"/><path class="cls-1" d="M329,256.27c-2.75,14.36-9.49,26.94-20.54,36.48,7.15-.68,14.58-1.07,22.41-1.07A294.4,294.4,0,0,1,361,293.17l-22.17-21.9A44.11,44.11,0,0,1,329,256.27Z"/><path class="cls-1" d="M472.52,425.05,471.16,424Z"/><path class="cls-1" d="M405.29,248.48c6.06-3.23,7.22-10.44,7.23-16.89l.1-81.71h2.52l-15-14.84-8.25-15.81-6.41,6.92,0,27.16,20,19.72Z"/><path class="cls-1" d="M413.85,272.1c-.35-.15-.69-.32-1-.49C413.16,271.78,413.5,272,413.85,272.1Z"/><path class="cls-1" d="M417,273c-.37-.07-.7-.18-1.06-.26C416.33,272.84,416.66,273,417,273Z"/><path class="cls-1" d="M411.22,270.62c-.29-.22-.57-.43-.84-.67C410.65,270.19,410.93,270.4,411.22,270.62Z"/><path class="cls-1" d="M311.62,142l5.9,16.18H274a69.48,69.48,0,0,1,13.47,10.3l23.44,23.15c-.6-.59-1.22-1.15-1.84-1.72a64.4,64.4,0,0,1,15.2,20.94l.07-56.3Z"/><path class="cls-1" d="M476.19,428.11c-.45-.4-.9-.8-1.36-1.19C475.29,427.31,475.74,427.71,476.19,428.11Z"/><path class="cls-1" d="M355.46,285.64c.13.21.25.42.38.62C355.71,286.06,355.59,285.85,355.46,285.64Z"/><path class="cls-1" d="M368.09,315.16c-1.11-.05-2.19-.12-3.33-.15C365.9,315,367,315.11,368.09,315.16Z"/><path class="cls-1" d="M378.4,315.79c-1.23-.1-2.45-.21-3.71-.29C376,315.58,377.17,315.69,378.4,315.79Z"/><path class="cls-1" d="M387.81,316.71c-1.22-.15-2.44-.29-3.69-.42C385.37,316.42,386.59,316.56,387.81,316.71Z"/><path class="cls-1" d="M207.35,459.13c.08,1.63.15,3.27.27,4.87C207.5,462.4,207.43,460.76,207.35,459.13Z"/><path class="cls-1" d="M290.08,177.53q-3-1.35-6.19-2.49Q287.08,176.18,290.08,177.53Z"/><path class="cls-1" d="M207.1,449.31c0,2.51,0,5,.12,7.44C207.14,454.3,207.09,451.82,207.1,449.31Z"/><path class="cls-1" d="M396.58,317.9l-3.53-.53Z"/><path class="cls-1" d="M208.68,474c.17,1.31.34,2.63.54,3.92C209,476.63,208.85,475.31,208.68,474Z"/><path class="cls-1" d="M404.81,319.35l-3.29-.61Z"/><path class="cls-1" d="M441,331c-.73-.35-1.45-.71-2.21-1.05C439.51,330.29,440.23,330.65,441,331Z"/><path class="cls-1" d="M446.41,333.79c-.71-.38-1.42-.77-2.15-1.15C445,333,445.7,333.41,446.41,333.79Z"/><path class="cls-1" d="M434.91,328.3c-.69-.29-1.36-.59-2.07-.87C433.55,327.71,434.22,328,434.91,328.3Z"/><path class="cls-1" d="M412.52,321c-.95-.23-1.94-.44-2.91-.66C410.58,320.6,411.57,320.81,412.52,321Z"/><path class="cls-1" d="M419.74,323c-.7-.21-1.45-.39-2.18-.59C418.29,322.57,419,322.75,419.74,323Z"/><path class="cls-1" d="M427.37,325.4l-.86-.31Z"/><path class="cls-1" d="M207.88,466.79c.12,1.43.24,2.86.4,4.27C208.12,469.65,208,468.22,207.88,466.79Z"/><path class="cls-1" d="M224.91,522.79c.55.92,1.11,1.83,1.68,2.72C226,524.62,225.46,523.71,224.91,522.79Z"/><path class="cls-1" d="M228.18,527.9c.6.88,1.21,1.75,1.84,2.61C229.39,529.65,228.78,528.78,228.18,527.9Z"/><path class="cls-1" d="M235.57,537.46c.7.8,1.42,1.59,2.14,2.36C237,539.05,236.27,538.26,235.57,537.46Z"/><path class="cls-1" d="M231.74,532.79c.64.84,1.31,1.67,2,2.49C233.05,534.46,232.38,533.63,231.74,532.79Z"/><path class="cls-1" d="M209.74,480.87c.23,1.25.44,2.5.69,3.72C210.18,483.37,210,482.12,209.74,480.87Z"/><path class="cls-1" d="M308.56,189.45c-1.57-1.4-3.22-2.73-4.93-4C305.34,186.72,307,188.05,308.56,189.45Z"/><path class="cls-1" d="M302.94,184.93q-2.55-1.83-5.33-3.48Q300.39,183.1,302.94,184.93Z"/><path class="cls-1" d="M296.77,181c-1.85-1.06-3.76-2.06-5.74-3C293,178.89,294.92,179.89,296.77,181Z"/><path class="cls-1" d="M212.7,493.94c.31,1.14.63,2.27,1,3.38C213.33,496.21,213,495.08,212.7,493.94Z"/><path class="cls-1" d="M221.91,517.45c.5,1,1,1.91,1.54,2.85C222.92,519.36,222.41,518.41,221.91,517.45Z"/><path class="cls-1" d="M214.59,500.15c.36,1.08.72,2.17,1.11,3.23C215.31,502.32,215,501.23,214.59,500.15Z"/><path class="cls-1" d="M211.08,487.52c.27,1.18.54,2.37.83,3.54C211.62,489.89,211.35,488.7,211.08,487.52Z"/><path class="cls-1" d="M219.19,511.9c.46,1,.92,2,1.4,3C220.11,513.9,219.65,512.9,219.19,511.9Z"/><path class="cls-1" d="M216.75,506.13c.41,1,.82,2.08,1.25,3.1C217.57,508.21,217.16,507.17,216.75,506.13Z"/><path class="cls-1" d="M268.33,221.13c.26,1.23.49,2.51.68,3.87C268.82,223.64,268.59,222.36,268.33,221.13Z"/><path class="cls-1" d="M264.35,210.9a21.4,21.4,0,0,1,1.49,2.59A21.4,21.4,0,0,0,264.35,210.9Z"/><path class="cls-1" d="M432.45,406.77l-.65-.14Z"/><path class="cls-1" d="M262.55,208.71a16.45,16.45,0,0,1,1.5,1.8A16.45,16.45,0,0,0,262.55,208.71Z"/><path class="cls-1" d="M267.42,217.61c.25.82.48,1.69.69,2.59C267.9,219.3,267.67,218.43,267.42,217.61Z"/><path class="cls-1" d="M266.19,214.3c.31.71.61,1.45.88,2.24C266.8,215.75,266.5,215,266.19,214.3Z"/><path class="cls-1" d="M451.4,336.7c-.66-.41-1.32-.81-2-1.21C450.07,335.89,450.74,336.29,451.4,336.7Z"/><path class="cls-1" d="M363.7,378.12a36.71,36.71,0,0,0-9.86-1.18c-6.58,0-12,1.7-16.14,5.35a188.35,188.35,0,0,1,27.55-2.63Z"/><path class="cls-1" d="M421.36,404.66c-.73-.12-1.47-.22-2.21-.32C419.89,404.44,420.63,404.54,421.36,404.66Z"/><path class="cls-1" d="M439.29,408.59c-.52-.15-1-.32-1.56-.46C438.26,408.27,438.77,408.44,439.29,408.59Z"/><path class="cls-1" d="M449.7,412.16c-.63-.25-1.25-.5-1.89-.74Z"/><path class="cls-1" d="M444.72,410.31c-.62-.21-1.24-.43-1.87-.63C443.48,409.88,444.1,410.1,444.72,410.31Z"/><path class="cls-1" d="M454.43,414.17c-.59-.27-1.19-.53-1.8-.79C453.24,413.64,453.84,413.9,454.43,414.17Z"/><path class="cls-1" d="M237,271.2a15.75,15.75,0,0,0,2,1.62A15.75,15.75,0,0,1,237,271.2Z"/><path class="cls-1" d="M427,405.62l-1.9-.34Z"/><path class="cls-1" d="M403.06,402.91c-.66,0-1.32-.07-2-.09C401.74,402.84,402.4,402.88,403.06,402.91Z"/><path class="cls-1" d="M242,274.44a16.1,16.1,0,0,1-2.72-1.37A16.1,16.1,0,0,0,242,274.44Z"/><path class="cls-1" d="M409.49,403.3l-2.29-.17Z"/><path class="cls-1" d="M269.82,235.65c0,1.64.07,3.33.07,5.1C269.89,239,269.86,237.29,269.82,235.65Z"/><path class="cls-1" d="M269.58,230.79c.08,1.1.14,2.23.18,3.4C269.72,233,269.66,231.89,269.58,230.79Z"/><path class="cls-1" d="M269.11,225.85c.14,1.12.26,2.27.36,3.47C269.37,228.12,269.25,227,269.11,225.85Z"/><path class="cls-1" d="M245.25,275.36a19.13,19.13,0,0,1-2.4-.64A19.13,19.13,0,0,0,245.25,275.36Z"/><path class="cls-1" d="M249.84,275.83a24.46,24.46,0,0,1-3.62-.29A24.46,24.46,0,0,0,249.84,275.83Z"/><path class="cls-1" d="M246.45,217.6A122.13,122.13,0,0,0,245.8,204c-12.54,1.77-17.2,14.34-17.22,35.62a100.19,100.19,0,0,0,.73,12.92C243.3,250.79,246.43,236.32,246.45,217.6Z"/><path class="cls-1" d="M377.1,477c.18.51.32,1,.47,1.56C377.42,478.07,377.28,477.54,377.1,477Z"/><path class="cls-1" d="M377.9,479.76c.14.58.25,1.17.36,1.76C378.15,480.93,378,480.34,377.9,479.76Z"/><path class="cls-1" d="M374.86,472.15c.24.41.47.84.69,1.27C375.33,473,375.1,472.56,374.86,472.15Z"/><path class="cls-1" d="M373.42,470c.28.37.54.76.81,1.15C374,470.77,373.7,470.38,373.42,470Z"/><path class="cls-1" d="M378.48,482.69c.1.67.16,1.37.23,2.07C378.64,484.06,378.58,483.36,378.48,482.69Z"/><path class="cls-1" d="M376.09,474.49c.21.45.39.93.58,1.41C376.48,475.42,376.3,474.94,376.09,474.49Z"/><path class="cls-1" d="M349.84,516.6l-1-.11Z"/><path class="cls-1" d="M415.54,403.88l-2.32-.25Z"/><path class="cls-1" d="M355.5,465.93a43.8,43.8,0,0,0-.29-4.82c-.62,0-1.23-.08-1.87-.08-14.17,0-26.82,7.58-26.84,26.52a47,47,0,0,0,.37,5.93c.84.06,1.69.1,2.57.1C346.4,493.58,355.48,481.08,355.5,465.93Z"/><path class="cls-1" d="M378.94,489.08c0-1.13,0-2.22-.12-3.29C378.9,486.86,378.94,488,378.94,489.08Z"/><path class="cls-1" d="M458.93,416.35c-.51-.27-1-.52-1.56-.78C457.89,415.83,458.42,416.08,458.93,416.35Z"/><path class="cls-1" d="M347,516.24l-1.08-.23Z"/><path class="cls-1" d="M456,339.71c-.59-.41-1.2-.81-1.81-1.22C454.79,338.9,455.4,339.3,456,339.71Z"/><path class="cls-1" d="M344.31,515.63c-.36-.1-.71-.22-1.07-.33C343.6,515.41,344,515.53,344.31,515.63Z"/><path class="cls-1" d="M460.2,342.82c-.5-.39-1-.77-1.55-1.16C459.17,342.05,459.7,342.43,460.2,342.82Z"/><path class="cls-1" d="M464.05,346c-.33-.3-.7-.59-1-.88C463.35,345.43,463.72,345.72,464.05,346Z"/><path class="cls-1" d="M341.82,514.81l-1-.44Z"/><path class="cls-1" d="M335.43,511c-.27-.23-.54-.46-.8-.71C334.89,510.55,335.16,510.78,335.43,511Z"/><path class="cls-1" d="M337.37,512.49c-.29-.2-.59-.41-.87-.62C336.78,512.08,337.08,512.29,337.37,512.49Z"/><path class="cls-1" d="M371.77,468.08c.32.33.62.68.92,1C372.39,468.76,372.09,468.41,371.77,468.08Z"/><path class="cls-1" d="M339.5,513.76c-.32-.17-.64-.35-.95-.54C338.86,513.41,339.18,513.59,339.5,513.76Z"/><path class="cls-2" d="M378.82,485.79c0-.35-.07-.68-.11-1-.07-.7-.13-1.4-.23-2.07-.07-.4-.15-.78-.22-1.17-.11-.59-.22-1.18-.36-1.76-.1-.4-.22-.78-.33-1.17s-.29-1-.47-1.56-.28-.76-.43-1.13-.37-1-.58-1.41-.36-.72-.54-1.07-.45-.86-.69-1.27-.42-.67-.63-1-.53-.78-.81-1.15-.48-.61-.73-.9-.6-.7-.92-1c-4-4.17-9.61-6.6-16.56-7a43.8,43.8,0,0,1,.29,4.82c0,15.15-9.1,27.65-26.06,27.65-.88,0-1.73,0-2.57-.1.91,7.08,3.52,12.82,7.76,16.82.26.25.53.48.8.71s.7.58,1.07.86.58.42.87.62.78.5,1.18.73.63.37.95.54.86.41,1.29.61l1,.44c.46.18.94.33,1.42.49s.71.23,1.07.33c.52.15,1.06.26,1.6.38l1.08.23c.61.1,1.25.17,1.89.25l1,.11c1,.08,2,.13,3,.13,17,0,26-12.5,26.06-27.65C378.94,488,378.9,486.86,378.82,485.79Z"/><path class="cls-2" d="M372,382.79a16.8,16.8,0,0,1,1.42,1.62A16.8,16.8,0,0,0,372,382.79Z"/><path class="cls-2" d="M376.22,389.17c.31.71.6,1.43.88,2.18C376.82,390.6,376.53,389.88,376.22,389.17Z"/><path class="cls-2" d="M373.72,384.78c.39.53.76,1.08,1.1,1.65C374.48,385.86,374.11,385.31,373.72,384.78Z"/><path class="cls-2" d="M375,386.68c.37.64.71,1.31,1,2C375.68,388,375.34,387.32,375,386.68Z"/><path class="cls-2" d="M455.63,407.62a84.41,84.41,0,0,0-23.95-16.27H377.1c-.28-.75-.57-1.47-.88-2.18l-.22-.49c-.32-.69-.66-1.36-1-2,0-.08-.1-.16-.15-.25-.34-.57-.71-1.12-1.1-1.65l-.27-.37a16.8,16.8,0,0,0-1.42-1.62,18.31,18.31,0,0,0-8.33-4.67l1.55,1.54a188.35,188.35,0,0,0-27.55,2.63c-6.85,6-10.45,17.17-10.72,34.8,15.79-9.45,39.85-14.37,67.84-14.37,2.11,0,4.19,0,6.25.1.67,0,1.33.06,2,.09,1.39.06,2.77.13,4.14.22l2.29.17c1.25.1,2.5.21,3.73.33l2.32.25c1.21.14,2.42.3,3.61.46.74.1,1.48.2,2.21.32,1.26.19,2.5.4,3.74.62l1.9.34c1.62.31,3.22.65,4.8,1l.65.14c1.79.42,3.55.88,5.28,1.36.53.14,1,.31,1.56.46,1.2.35,2.39.71,3.56,1.09.63.2,1.25.42,1.87.63q1.56.54,3.09,1.11c.64.24,1.26.49,1.89.74,1,.39,2,.8,2.93,1.22.61.26,1.21.52,1.8.79,1,.45,2,.92,2.94,1.4.52.26,1.05.51,1.56.78,1.19.61,2.35,1.26,3.49,1.91.26.15.54.29.8.45q2.08,1.21,4.07,2.54c.38.25.73.51,1.1.77.94.64,1.87,1.29,2.77,2l1.36,1.06c.78.62,1.55,1.23,2.31,1.87.46.39.91.79,1.36,1.19.72.64,1.42,1.28,2.1,1.94.26.25.53.47.78.72Z"/><path class="cls-2" d="M237.71,539.82c-.72-.77-1.44-1.56-2.14-2.36s-1.24-1.45-1.85-2.18-1.34-1.65-2-2.49-1.16-1.51-1.72-2.28-1.24-1.73-1.84-2.61-1.07-1.58-1.59-2.39-1.13-1.8-1.68-2.72-1-1.65-1.46-2.49-1-1.89-1.54-2.85-.9-1.71-1.32-2.58-.94-2-1.4-3-.8-1.77-1.19-2.67-.84-2.06-1.25-3.1-.72-1.82-1.05-2.75-.75-2.15-1.11-3.23-.63-1.88-.92-2.83c-.34-1.11-.66-2.24-1-3.38-.27-1-.54-1.91-.79-2.88-.29-1.17-.56-2.36-.83-3.54-.22-1-.45-1.94-.65-2.93-.25-1.22-.46-2.47-.69-3.72-.17-1-.36-1.95-.52-2.95-.2-1.29-.37-2.61-.54-3.92-.13-1-.28-1.95-.4-2.94-.16-1.41-.28-2.84-.4-4.27-.09-.93-.19-1.84-.26-2.79-.12-1.6-.19-3.24-.27-4.87,0-.8-.1-1.58-.13-2.38-.08-2.45-.13-4.93-.12-7.44.09-73.5,43.54-134.48,147.21-134.48,3.58,0,7.05.07,10.45.18,1.14,0,2.22.1,3.33.15,2.23.09,4.45.2,6.6.34,1.26.08,2.48.19,3.71.29,1.93.15,3.85.31,5.72.5,1.25.13,2.47.27,3.69.42,1.77.2,3.52.42,5.24.66l3.53.53c1.68.26,3.32.54,4.94.84l3.29.61c1.64.33,3.22.67,4.8,1,1,.22,2,.43,2.91.66,1.73.42,3.39.87,5,1.33.73.2,1.48.38,2.18.59,2.33.68,4.59,1.38,6.77,2.13l.86.31c1.87.66,3.7,1.33,5.47,2,.71.28,1.38.58,2.07.87,1.3.54,2.6,1.08,3.84,1.65.76.34,1.48.7,2.21,1.05,1.12.54,2.23,1.08,3.3,1.64.73.38,1.44.77,2.15,1.15,1,.56,2,1.13,3,1.7.68.4,1.34.8,2,1.21,1,.59,1.87,1.19,2.78,1.79.61.41,1.22.81,1.81,1.22.91.64,1.79,1.29,2.66,2,.52.39,1.05.77,1.55,1.16,1,.77,1.89,1.54,2.81,2.32.34.29.71.58,1,.88q1.84,1.62,3.52,3.27l.07.06L444.2,326.2a94,94,0,0,0-19.82-14.75c-1.62,0-3.27.06-5,.06-27.79,0-46.14-6.11-57.33-17.31l.2.22L361,293.17a294.4,294.4,0,0,0-30.15-1.49c-7.83,0-15.26.39-22.41,1.07C295,304.4,275,311.51,247.74,311.51c-1.1,0-2.13-.09-3.22-.12-42.1,23.76-60.81,66.57-60.87,114.77,0,39.44,10.91,71.23,33.54,93.58l23.44,23.15c-.32-.32-.62-.67-.94-1C239,541.22,238.36,540.52,237.71,539.82Z"/><path class="cls-2" d="M41.35,551.15,64.79,574.3,65,412.56c-5.81-.52-15-1.72-23.46-3.24Z"/><path class="cls-2" d="M160.33,297.35H120.39l0,10.73H63l-.49-.48c-13.41,9.77-32.28,16.16-55.95,18.18l-.08,57.93,23.45,23.15L30,348.93C61.14,346.27,84,336,97,320.5h86.75Z"/><path class="cls-2" d="M478.65,158.19h-55.1l-8.41-8.31h-2.52l-.1,81.71c0,6.45-1.17,13.66-7.23,16.89v6.26c0,6.5,1.4,11.92,5.1,15.21.27.24.55.45.84.67a13.58,13.58,0,0,0,1.61,1c.33.17.67.34,1,.49a16.42,16.42,0,0,0,2.12.66c.36.08.69.19,1.06.26a21,21,0,0,0,3.77.33c13.09,0,15.15-10,15.16-18.61l.1-81.71h57.61Z"/><path class="cls-2" d="M358.94,290.68l-.44-.57a41.11,41.11,0,0,1-2.66-3.85c-.13-.2-.25-.41-.38-.62-.79-1.35-1.53-2.75-2.2-4.19-.1-.22-.19-.45-.29-.67a48.55,48.55,0,0,1-1.77-4.54c-.08-.22-.14-.45-.22-.67-.51-1.59-1-3.23-1.36-4.92,0-.21-.08-.42-.13-.63-.38-1.73-.71-3.51-1-5.34,0-.17,0-.35-.07-.52-.25-1.89-.45-3.82-.58-5.81,0-.11,0-.22,0-.33-.13-2.07-.19-4.18-.19-6.35l.1-78.64h57.61l-20-19.72v4.88H328l-3.68-3.63-.07,56.3a69.66,69.66,0,0,1,5.95,23.55c.15,2,.29,4.05.28,6.13A84.1,84.1,0,0,1,329,256.27a44.11,44.11,0,0,0,9.85,15L361,293.17l1.27,1.25-.2-.22A43.52,43.52,0,0,1,358.94,290.68Z"/><path class="cls-2" d="M269.82,235.65c0-.5,0-1-.06-1.46,0-1.17-.1-2.3-.18-3.4,0-.49-.07-1-.11-1.47-.1-1.2-.22-2.35-.36-3.47,0-.28-.06-.58-.1-.85-.19-1.36-.42-2.64-.68-3.87-.06-.32-.15-.62-.22-.93-.21-.9-.44-1.77-.69-2.59-.11-.37-.23-.72-.35-1.07-.27-.79-.57-1.53-.88-2.24-.12-.27-.23-.55-.35-.81a21.4,21.4,0,0,0-1.49-2.59c-.09-.14-.2-.25-.3-.39a16.45,16.45,0,0,0-1.5-1.8c-3.17-3.28-7.55-5-13.56-5a23.21,23.21,0,0,0-3.19.24,122.13,122.13,0,0,1,.65,13.63c0,18.72-3.15,33.19-17.14,34.91.16,1.24.35,2.44.57,3.61,1.23,6.46,3.45,11.65,7.09,15.08a15.75,15.75,0,0,0,2,1.62,4.08,4.08,0,0,0,.33.25,16.1,16.1,0,0,0,2.72,1.37c.26.1.54.18.81.28a19.13,19.13,0,0,0,2.4.64c.32.06.64.13,1,.18a24.46,24.46,0,0,0,3.62.29c16.47,0,20-15.12,20-35.08C269.89,239,269.86,237.29,269.82,235.65Z"/><path class="cls-2" d="M287.46,168.49A69.48,69.48,0,0,0,274,158.19H256.16L245.9,148.06a108,108,0,0,0-19-1.64A132,132,0,0,0,205.73,148l-2.49,10.15H176.16a61.91,61.91,0,0,0-16.86,14.32l.53.52,0,36.46H144.92c-.25,2.68-.39,5.38-.39,8.11,0,19.49,6.59,36.76,19.34,49.36l23.44,23.15c-.68-.68-1.28-1.42-1.93-2.13s-1.44-1.52-2.11-2.32-1.49-1.92-2.21-2.89-1.25-1.63-1.82-2.49c-.68-1-1.28-2.09-1.9-3.15-.51-.87-1.05-1.73-1.52-2.63-.58-1.1-1.07-2.26-1.59-3.41-.41-.91-.85-1.79-1.22-2.73-.48-1.2-.87-2.45-1.28-3.69-.3-.93-.65-1.84-.92-2.78-.38-1.33-.66-2.71-1-4.07-.2-.91-.45-1.79-.62-2.71-.28-1.55-.45-3.15-.64-4.74-.09-.78-.24-1.53-.3-2.32-.21-2.39-.32-4.83-.32-7.3.05-37.41,22.73-71.18,82.36-71.18,2.92,0,5.78.12,8.57.33l.53,0c2.67.21,5.27.53,7.82.93.27,0,.55.07.82.12,2.46.4,4.86.9,7.2,1.48l1,.23q3.43.88,6.67,2l1,.34q3.19,1.14,6.19,2.49l.95.44c2,.92,3.89,1.92,5.74,3l.84.5q2.77,1.65,5.33,3.48l.69.52c1.71,1.27,3.36,2.6,4.93,4l.5.47c.62.57,1.24,1.13,1.84,1.72Z"/><polygon class="cls-2" points="39.53 284.93 62.49 307.6 62.98 308.08 63.1 209.49 39.63 209.49 39.53 284.93"/><polygon class="cls-2" points="159.3 172.51 136.39 149.88 120.97 149.88 120.96 158.19 63.53 158.19 55.12 149.88 0.04 149.88 0 186.34 23.44 209.49 23.49 173.03 159.83 173.03 159.3 172.51"/><polygon class="cls-2" points="391.86 119.23 400.11 135.04 415.14 149.88 423.55 158.19 399.13 111.39 391.86 119.23"/><path class="cls-2" d="M418.88,23.15h69.19L464.63,0H395.44c-4.39,6.62-8.71,13.34-13,20.06L362.13,0h-57.4l-.15,122.7,7,19.31L328,158.19l.17-135h57.39l-.06,52.35C393.66,62.57,416,27.47,418.88,23.15Z"/><path class="cls-2" d="M229.93,60h-1.48c-1.53,7.3-3.68,16.26-5.81,24.89-1.56,6.33-3.1,12.49-4.37,17.68h22.27C237.18,88,233.48,72.64,229.93,60Z"/><polygon class="cls-2" points="236.74 139.01 245.9 148.06 256.16 158.19 251.14 139.01 236.74 139.01"/><polygon class="cls-2" points="244.86 0 169.14 0 160.39 26.01 160.35 59.6 149.09 59.6 123.7 135.04 147.14 158.19 192.58 23.15 268.3 23.15 244.86 0"/><polygon class="cls-2" points="40.09 135.04 55.12 149.88 63.53 158.19 63.66 59.6 40.19 59.6 40.09 135.04"/><polygon class="cls-2" points="136.95 0 0.64 0 0.59 36.45 24.03 59.6 24.08 23.15 160.39 23.15 136.95 0"/><path class="cls-3" d="M478.29,430.05c-.68-.66-1.38-1.3-2.1-1.94-.45-.4-.9-.8-1.36-1.19-.76-.64-1.53-1.25-2.31-1.87L471.16,424c-.9-.68-1.83-1.33-2.77-2-.37-.25-.72-.52-1.1-.77q-2-1.32-4.07-2.54c-.26-.16-.54-.3-.8-.45-1.14-.65-2.3-1.3-3.49-1.91-.51-.27-1-.52-1.56-.78-1-.48-1.95-.95-2.94-1.4-.59-.27-1.19-.53-1.8-.79-1-.42-1.94-.83-2.93-1.22l-1.89-.74q-1.53-.57-3.09-1.11c-.62-.21-1.24-.43-1.87-.63-1.17-.38-2.36-.74-3.56-1.09-.52-.15-1-.32-1.56-.46-1.73-.48-3.49-.94-5.28-1.36l-.65-.14c-1.58-.36-3.18-.7-4.8-1l-1.9-.34c-1.24-.22-2.48-.43-3.74-.62-.73-.12-1.47-.22-2.21-.32-1.19-.16-2.4-.32-3.61-.46l-2.32-.25c-1.23-.12-2.48-.23-3.73-.33l-2.29-.17c-1.37-.09-2.75-.16-4.14-.22-.66,0-1.32-.07-2-.09-2.06-.06-4.14-.1-6.25-.1-28,0-52.05,4.92-67.84,14.37.27-17.63,3.87-28.83,10.72-34.8,4.18-3.65,9.56-5.35,16.14-5.35a36.71,36.71,0,0,1,9.86,1.18,18.31,18.31,0,0,1,8.33,4.67,16.8,16.8,0,0,1,1.42,1.62l.27.37c.39.53.76,1.08,1.1,1.65.05.09.11.17.15.25.37.64.71,1.31,1,2l.22.49c.31.71.6,1.43.88,2.18H489.44c-1.7-11.58-7.24-27.64-21.87-42.06q-1.68-1.65-3.52-3.27c-.33-.3-.7-.59-1-.88-.92-.78-1.84-1.55-2.81-2.32-.5-.39-1-.77-1.55-1.16-.87-.66-1.75-1.31-2.66-2-.59-.41-1.2-.81-1.81-1.22-.91-.6-1.83-1.2-2.78-1.79-.66-.41-1.33-.81-2-1.21-1-.57-2-1.14-3-1.7-.71-.38-1.42-.77-2.15-1.15-1.07-.56-2.18-1.1-3.3-1.64-.73-.35-1.45-.71-2.21-1.05-1.24-.57-2.54-1.11-3.84-1.65-.69-.29-1.36-.59-2.07-.87-1.77-.7-3.6-1.37-5.47-2l-.86-.31c-2.18-.75-4.44-1.45-6.77-2.13-.7-.21-1.45-.39-2.18-.59-1.65-.46-3.31-.91-5-1.33-.95-.23-1.94-.44-2.91-.66-1.58-.36-3.16-.7-4.8-1l-3.29-.61c-1.62-.3-3.26-.58-4.94-.84l-3.53-.53c-1.72-.24-3.47-.46-5.24-.66-1.22-.15-2.44-.29-3.69-.42-1.87-.19-3.79-.35-5.72-.5-1.23-.1-2.45-.21-3.71-.29-2.15-.14-4.37-.25-6.6-.34-1.11-.05-2.19-.12-3.33-.15-3.4-.11-6.87-.18-10.45-.18-103.67,0-147.12,61-147.21,134.48,0,2.51,0,5,.12,7.44,0,.8.09,1.58.13,2.38.08,1.63.15,3.27.27,4.87.07.95.17,1.86.26,2.79.12,1.43.24,2.86.4,4.27.12,1,.27,2,.4,2.94.17,1.31.34,2.63.54,3.92.16,1,.35,2,.52,2.95.23,1.25.44,2.5.69,3.72.2,1,.43,2,.65,2.93.27,1.18.54,2.37.83,3.54.25,1,.52,1.92.79,2.88.31,1.14.63,2.27,1,3.38.29.95.61,1.89.92,2.83s.72,2.17,1.11,3.23.7,1.84,1.05,2.75.82,2.08,1.25,3.1.79,1.79,1.19,2.67.92,2,1.4,3,.87,1.73,1.32,2.58,1,1.91,1.54,2.85,1,1.67,1.46,2.49,1.11,1.83,1.68,2.72,1,1.6,1.59,2.39,1.21,1.75,1.84,2.61,1.13,1.53,1.72,2.28,1.31,1.67,2,2.49,1.22,1.46,1.85,2.18,1.42,1.59,2.14,2.36,1.31,1.4,2,2.08C264,566.52,302,580,354.77,580c76.5,0,145.14-27.29,145.23-96.62C500,461.25,492.13,443.34,478.29,430.05ZM352.88,516.73c-1,0-2.05-.05-3-.13l-1-.11c-.64-.08-1.28-.15-1.89-.25l-1.08-.23c-.54-.12-1.08-.23-1.6-.38-.36-.1-.71-.22-1.07-.33s-1-.31-1.42-.49l-1-.44c-.43-.2-.87-.4-1.29-.61s-.64-.35-.95-.54-.8-.48-1.18-.73-.59-.41-.87-.62-.73-.57-1.07-.86-.54-.46-.8-.71c-4.24-4-6.85-9.74-7.76-16.82a47,47,0,0,1-.37-5.93c0-18.94,12.67-26.52,26.84-26.52.64,0,1.25.05,1.87.08,7,.37,12.55,2.8,16.56,7,.32.33.62.68.92,1s.49.59.73.9.54.76.81,1.15.43.65.63,1,.47.84.69,1.27.37.7.54,1.07.39.93.58,1.41.3.74.43,1.13.32,1,.47,1.56.23.77.33,1.17c.14.58.25,1.17.36,1.76.07.39.15.77.22,1.17.1.67.16,1.37.23,2.07,0,.35.09.68.11,1,.08,1.07.12,2.16.12,3.29C378.92,504.23,369.84,516.73,352.88,516.73Z"/><path class="cls-3" d="M30,348.93l-.07,57.93c3.38.88,7.42,1.7,11.62,2.46C50,410.84,59.18,412,65,412.56l-.2,161.74H183.46l.31-253.8H97C84,336,61.14,346.27,30,348.93Z"/><path class="cls-3" d="M436,254.74c0,8.62-2.07,18.61-15.16,18.61A21,21,0,0,1,417,273c-.37-.07-.7-.18-1.06-.26a16.42,16.42,0,0,1-2.12-.66c-.35-.15-.69-.32-1-.49a13.58,13.58,0,0,1-1.61-1c-.29-.22-.57-.43-.84-.67-3.7-3.29-5.1-8.71-5.1-15.21v-6.26l.1-75.45H347.78l-.1,78.64c0,2.17.06,4.28.19,6.35,0,.11,0,.22,0,.33.13,2,.33,3.92.58,5.81,0,.17,0,.35.07.52.25,1.83.58,3.61,1,5.34.05.21.09.42.13.63.39,1.69.85,3.33,1.36,4.92.08.22.14.45.22.67a48.55,48.55,0,0,0,1.77,4.54c.1.22.19.45.29.67.67,1.44,1.41,2.84,2.2,4.19.13.21.25.42.38.62a41.11,41.11,0,0,0,2.66,3.85l.44.57a43.52,43.52,0,0,0,3.15,3.52c11.19,11.2,29.54,17.31,57.33,17.31,1.69,0,3.34,0,5-.06,51.18-1.28,69.15-22.56,69.2-58.62l.09-79.8H436.06Z"/><path class="cls-3" d="M308.46,292.75c11.05-9.54,17.79-22.12,20.54-36.48a84.1,84.1,0,0,0,1.49-15.73c0-2.08-.13-4.11-.28-6.13a69.66,69.66,0,0,0-5.95-23.55,64.4,64.4,0,0,0-15.2-20.94l-.5-.47c-1.57-1.4-3.22-2.73-4.93-4l-.69-.52q-2.55-1.83-5.33-3.48l-.84-.5c-1.85-1.06-3.76-2.06-5.74-3l-.95-.44q-3-1.35-6.19-2.49l-1-.34q-3.24-1.11-6.67-2l-1-.23c-2.34-.58-4.74-1.08-7.2-1.48-.27-.05-.55-.08-.82-.12-2.55-.4-5.15-.72-7.82-.93l-.53,0c-2.79-.21-5.65-.33-8.57-.33-59.63,0-82.31,33.77-82.36,71.18,0,2.47.11,4.91.32,7.3.06.79.21,1.54.3,2.32.19,1.59.36,3.19.64,4.74.17.92.42,1.8.62,2.71.3,1.36.58,2.74,1,4.07.27.94.62,1.85.92,2.78.41,1.24.8,2.49,1.28,3.69.37.94.81,1.82,1.22,2.73.52,1.15,1,2.31,1.59,3.41.47.9,1,1.76,1.52,2.63.62,1.06,1.22,2.13,1.9,3.15.57.86,1.21,1.66,1.82,2.49s1.43,2,2.21,2.89,1.4,1.55,2.11,2.32c12.9,14,32.81,22.73,59.14,23.41,1.09,0,2.12.12,3.22.12C275,311.51,295,304.4,308.46,292.75ZM237,271.2c-3.64-3.43-5.86-8.62-7.09-15.08-.22-1.17-.41-2.37-.57-3.61a100.19,100.19,0,0,1-.73-12.92c0-21.28,4.68-33.85,17.22-35.62a23.21,23.21,0,0,1,3.19-.24c6,0,10.39,1.7,13.56,5a16.45,16.45,0,0,1,1.5,1.8c.1.14.21.25.3.39a21.4,21.4,0,0,1,1.49,2.59c.12.26.23.54.35.81.31.71.61,1.45.88,2.24.12.35.24.7.35,1.07.25.82.48,1.69.69,2.59.07.31.16.61.22.93.26,1.23.49,2.51.68,3.87,0,.27.06.57.1.85.14,1.12.26,2.27.36,3.47,0,.48.08,1,.11,1.47.08,1.1.14,2.23.18,3.4,0,.48,0,1,.06,1.46,0,1.64.07,3.33.07,5.1,0,20-3.58,35.08-20,35.08a24.46,24.46,0,0,1-3.62-.29c-.33-.05-.65-.12-1-.18a19.13,19.13,0,0,1-2.4-.64c-.27-.1-.55-.18-.81-.28a16.1,16.1,0,0,1-2.72-1.37,4.08,4.08,0,0,1-.33-.25A15.75,15.75,0,0,1,237,271.2Z"/><polygon class="cls-3" points="159.83 173.03 23.49 173.03 23.44 209.49 39.63 209.49 63.1 209.49 62.98 308.08 84.44 308.08 120.37 308.08 120.39 297.35 120.5 209.49 144.92 209.49 159.79 209.49 159.83 173.03"/><path class="cls-3" d="M418.88,23.15C416,27.47,393.66,62.57,385.51,75.5l.06-52.35H328.18l-.17,135h57.4v-4.88l0-27.16,6.41-6.92,7.27-7.84,24.42,46.8h67L438.25,77.62l49.82-54.47Z"/><path class="cls-3" d="M147.14,158.19h56.1L205.73,148l2.22-9h43.19l5,19.18h61.36L311.62,142l-7-19.31L268.3,23.15H192.58Zm93.4-55.63H218.27c1.27-5.19,2.81-11.35,4.37-17.68,2.13-8.63,4.28-17.59,5.81-24.89h1.48C233.48,72.64,237.18,88,240.54,102.56Z"/><polygon class="cls-3" points="63.53 158.19 120.96 158.19 120.97 149.88 121.09 59.6 149.09 59.6 160.35 59.6 160.39 26.01 160.39 23.15 24.08 23.15 24.03 59.6 40.19 59.6 63.66 59.6 63.53 158.19"/></g></g></svg>