<svg xmlns="http://www.w3.org/2000/svg" xmlns:xlink="http://www.w3.org/1999/xlink" viewBox="0 0 45.2 47.95"><defs><style>.cls-1{fill:none;}.cls-2{isolation:isolate;}.cls-3{clip-path:url(#clip-path);}.cls-4{fill:#155d76;}.cls-5{fill:#155971;}.cls-6{clip-path:url(#clip-path-2);}.cls-7{clip-path:url(#clip-path-3);}.cls-8{clip-path:url(#clip-path-4);}.cls-9{fill:#186783;}.cls-10{fill:#196b88;}.cls-11{fill:#196e8c;}.cls-12{fill:#1a7291;}.cls-13{clip-path:url(#clip-path-5);}.cls-14{clip-path:url(#clip-path-6);}.cls-15{fill:#17647f;}.cls-16{fill:#16607a;}.cls-17{clip-path:url(#clip-path-7);}.cls-18{clip-path:url(#clip-path-8);}.cls-19{clip-path:url(#clip-path-9);}.cls-20{clip-path:url(#clip-path-10);}.cls-21{clip-path:url(#clip-path-11);}.cls-22{fill:#249bc4;}</style><clipPath id="clip-path"><path class="cls-1" d="M36,47.66,30.8,42.42a.64.64,0,0,1-.13-.15L35.9,47.5A1,1,0,0,0,36,47.66Z"/></clipPath><clipPath id="clip-path-2"><path class="cls-1" d="M20.64,27.22l5.23,5.24a1,1,0,0,1,.12.15l-5.23-5.23A1,1,0,0,0,20.64,27.22Z"/></clipPath><clipPath id="clip-path-3"><path class="cls-1" d="M5.52,47.66.29,42.43A1,1,0,0,1,0,41.72L5.23,47A1,1,0,0,0,5.52,47.66Z"/></clipPath><clipPath id="clip-path-4"><path class="cls-1" d="M39.19.29l5.22,5.24a1,1,0,0,0-.71-.3L38.47,0A1,1,0,0,1,39.19.29Z"/></clipPath><clipPath id="clip-path-5"><path class="cls-1" d="M5.24,42.8,0,37.57A1,1,0,0,1,.18,37l5.23,5.23A1,1,0,0,0,5.24,42.8Z"/></clipPath><clipPath id="clip-path-6"><path class="cls-1" d="M24.49,18.77l-5.22-5.23a1,1,0,0,0,.7.28,1,1,0,0,0,.81-.39L26,18.66a1,1,0,0,1-.8.4A1,1,0,0,1,24.49,18.77Z"/></clipPath><clipPath id="clip-path-7"><path class="cls-1" d="M35.83,5.63,30.61.4a1,1,0,0,1,.8-.4l5.23,5.23A1,1,0,0,0,35.83,5.63Z"/></clipPath><clipPath id="clip-path-8"><path class="cls-1" d="M16.45,26l-5.23-5.23a1,1,0,0,0,0-1.16l5.22,5.23A1,1,0,0,1,16.45,26Z"/></clipPath><clipPath id="clip-path-9"><path class="cls-1" d="M9.55.3l5.22,5.23a1,1,0,0,0-.71-.3L8.83,0A1,1,0,0,1,9.55.3Z"/></clipPath><clipPath id="clip-path-10"><path class="cls-1" d="M6.12,11,.89,5.72a1,1,0,0,1-.2-.6l5.23,5.24A1,1,0,0,0,6.12,11Z"/></clipPath><clipPath id="clip-path-11"><path class="cls-1" d="M5.93,6.23.7,1a1,1,0,0,1,1-1L6.93,5.23A1,1,0,0,0,5.93,6.23Z"/></clipPath></defs><g id="Layer_2" data-name="Layer 2"><g id="Layer_1-2" data-name="Layer 1"><g class="cls-2"><g class="cls-2"><g class="cls-3"><g class="cls-2"><path class="cls-4" d="M36,47.66,30.8,42.42a.64.64,0,0,1-.13-.15L35.9,47.5a1,1,0,0,0,.13.16"/></g></g></g><polygon class="cls-5" points="35.9 47.5 30.67 42.27 20.77 27.38 25.99 32.61 35.9 47.5"/><g class="cls-2"><g class="cls-6"><g class="cls-2"><path class="cls-4" d="M26,32.61l-5.23-5.23a1,1,0,0,0-.12-.16l5.23,5.24a1,1,0,0,1,.12.15"/></g></g></g><g class="cls-2"><g class="cls-7"><g class="cls-2"><path class="cls-4" d="M5.52,47.66.29,42.43A1,1,0,0,1,0,41.72L5.23,47a1,1,0,0,0,.29.71"/></g></g></g><g class="cls-2"><g class="cls-8"><g class="cls-2"><path class="cls-9" d="M43.7,5.23,38.47,0h.07l5.23,5.24H43.7"/><path class="cls-10" d="M43.77,5.24,38.54,0a.76.76,0,0,1,.16,0l5.23,5.23-.16,0"/><path class="cls-11" d="M43.93,5.26,38.7,0a.68.68,0,0,1,.2.07l5.23,5.23-.2-.07"/><path class="cls-12" d="M44.13,5.33,38.9.1a1,1,0,0,1,.29.19l5.22,5.24a1,1,0,0,0-.28-.2"/></g></g></g><polygon class="cls-5" points="5.23 46.95 0 41.72 0.01 37.57 5.24 42.8 5.23 46.95"/><g class="cls-2"><g class="cls-13"><g class="cls-2"><path class="cls-4" d="M5.24,42.8,0,37.57A1,1,0,0,1,.18,37l5.23,5.23a1,1,0,0,0-.17.56"/></g></g></g><g class="cls-2"><g class="cls-14"><g class="cls-2"><path class="cls-12" d="M24.49,18.77l-5.22-5.23a1,1,0,0,0,.27.19L24.77,19a1,1,0,0,1-.28-.19"/><path class="cls-11" d="M24.77,19l-5.23-5.23.2.07L25,19a.68.68,0,0,1-.2-.07"/><path class="cls-10" d="M25,19,19.74,13.8l.16,0,5.23,5.24L25,19"/><path class="cls-9" d="M25.13,19.06,19.9,13.82h.16l5.23,5.23h-.16"/><path class="cls-15" d="M25.29,19.05l-5.23-5.23a.45.45,0,0,0,.16,0L25.45,19l-.16,0"/><path class="cls-16" d="M25.45,19l-5.23-5.24a.49.49,0,0,0,.17-.06L25.62,19l-.17.06"/><path class="cls-4" d="M25.62,19l-5.23-5.24a1,1,0,0,0,.39-.3L26,18.66a1,1,0,0,1-.38.31"/></g></g></g><polygon class="cls-5" points="5.41 42.24 0.18 37.01 11.22 20.78 16.45 26.01 5.41 42.24"/><polygon class="cls-9" points="36.64 5.23 31.41 0 38.47 0 43.7 5.23 36.64 5.23"/><polygon class="cls-5" points="26 18.66 20.78 13.43 30.61 0.4 35.84 5.63 26 18.66"/><g class="cls-2"><g class="cls-17"><g class="cls-2"><path class="cls-4" d="M35.83,5.63,30.61.4A1,1,0,0,1,31,.09l5.22,5.23a1.24,1.24,0,0,0-.38.31"/><path class="cls-16" d="M36.21,5.32,31,.09,31.16,0l5.23,5.23-.18.06"/><path class="cls-15" d="M36.39,5.26,31.16,0l.16,0,5.23,5.24-.16,0"/><path class="cls-9" d="M36.55,5.24,31.32,0h.09l5.23,5.23h-.09"/></g></g></g><g class="cls-2"><g class="cls-18"><g class="cls-2"><path class="cls-4" d="M16.45,26l-5.23-5.23a1,1,0,0,0,0-1.16l5.22,5.23a1,1,0,0,1,0,1.16"/></g></g></g><g class="cls-2"><g class="cls-19"><g class="cls-2"><path class="cls-9" d="M14.06,5.23,8.83,0H8.9l5.22,5.24h-.06"/><path class="cls-10" d="M14.12,5.24,8.9,0l.16,0,5.22,5.23-.16,0"/><path class="cls-11" d="M14.28,5.26,9.06,0a.68.68,0,0,1,.2.07l5.23,5.23-.21-.07"/><path class="cls-12" d="M14.49,5.33,9.26.1a.94.94,0,0,1,.29.2l5.22,5.23a1.1,1.1,0,0,0-.28-.2"/></g></g></g><polygon class="cls-5" points="16.42 24.85 11.2 19.62 0.89 5.72 6.12 10.95 16.42 24.85"/><g class="cls-2"><g class="cls-20"><g class="cls-2"><path class="cls-4" d="M6.12,11,.89,5.72a1,1,0,0,1-.2-.6l5.23,5.24a1,1,0,0,0,.2.59"/></g></g></g><polygon class="cls-9" points="6.93 5.23 1.71 0 8.83 0 14.06 5.23 6.93 5.23"/><polygon class="cls-5" points="5.92 10.36 0.69 5.12 0.7 1 5.93 6.23 5.92 10.36"/><g class="cls-2"><g class="cls-21"><g class="cls-2"><path class="cls-4" d="M5.93,6.23.7,1A1,1,0,0,1,1.29.09L6.52,5.32a1,1,0,0,0-.59.91"/><path class="cls-16" d="M6.52,5.32,1.29.09A.64.64,0,0,1,1.47,0L6.69,5.26l-.17.06"/><path class="cls-15" d="M6.69,5.26,1.47,0l.15,0L6.84,5.24l-.15,0"/><path class="cls-9" d="M6.84,5.24,1.62,0h.09L6.93,5.23H6.84"/></g></g></g><path class="cls-22" d="M43.7,5.23a1,1,0,0,1,1,1v4.11a1.08,1.08,0,0,1-.21.62L33.6,24.84a1,1,0,0,0,0,1.19L45,42.24a1,1,0,0,1,.18.58V47a1,1,0,0,1-1,1H36.73a1,1,0,0,1-.83-.45L26,32.61a1,1,0,0,0-.83-.44,1,1,0,0,0-.83.45L14.51,47.5a1,1,0,0,1-.84.45H6.22a1,1,0,0,1-1-1V42.8a1,1,0,0,1,.17-.56L16.45,26a1,1,0,0,0,0-1.16L6.12,11a1,1,0,0,1-.2-.59V6.23a1,1,0,0,1,1-1h7.13a1,1,0,0,1,.81.41l9.52,13a1,1,0,0,0,.81.41,1,1,0,0,0,.8-.4l9.83-13a1,1,0,0,1,.81-.4Z"/></g></g></g></svg>